<svg width="38" height="38" fill="none" xmlns="http://www.w3.org/2000/svg"><path d="M37.367 34.2h-1.9V22.167a.633.633 0 00-1.152-.363L25.448 34.47a.633.633 0 00.519.996H34.2v1.9a.633.633 0 001.267 0v-1.9h1.9a.633.633 0 000-1.267zm-3.167 0h-7.017L34.2 24.176V34.2z" fill="#fff"/><path d="M25.967 36.733h-7.498l6.97-8.208a.682.682 0 00.045-.06 4.405 4.405 0 00-.994-5.98 5.067 5.067 0 00-8.023 4.115.633.633 0 001.266 0 3.8 3.8 0 016.017-3.087 3.127 3.127 0 01.697 4.221l-7.83 9.223A.633.633 0 0017.1 38h8.867a.633.633 0 000-1.267z" fill="#fff"/><path d="M17.114 33.579a.633.633 0 00-.61-.657C8.243 32.615 1.61 25.995 1.29 17.733H3.8a.633.633 0 100-1.266H1.289c.317-8.248 6.93-14.86 15.178-15.178v1.878a.633.633 0 101.266 0V1.289c8.135.315 14.7 6.757 15.17 14.884l-2.47-2.47a.633.633 0 00-.896.895l3.536 3.536c.066.08.152.143.25.181.024.008.05.014.075.019a.62.62 0 00.134.032h.036a.608.608 0 00.142-.028.598.598 0 00.077-.014.624.624 0 00.229-.144l3.583-3.582a.633.633 0 00-.895-.895l-2.532 2.53C33.72 7.153 26.234.022 17.145.008c-.016 0-.03-.009-.045-.009-.016 0-.03.008-.045.009C7.646.022.022 7.646.009 17.055c0 .016-.009.03-.009.045 0 .016.008.03.009.045.016 9.177 7.278 16.702 16.449 17.043h.023c.34 0 .62-.27.633-.61z" fill="#fff"/><path d="M25.609 8.591a.633.633 0 00-.896 0l-6.806 6.805a1.983 1.983 0 00-1.615 0l-3.223-3.222a.633.633 0 00-.895.896l3.216 3.216a1.897 1.897 0 003.053 2.158 1.88 1.88 0 00.366-2.158l6.8-6.8a.633.633 0 000-.895zm-8.061 8.957a.648.648 0 01-.896 0 .633.633 0 11.896 0z" fill="#fff"/></svg>