<svg width="38" height="38" fill="none" xmlns="http://www.w3.org/2000/svg"><path d="M37.987 26.389L35.85 16.286a.559.559 0 00-.548-.443H2.695a.56.56 0 00-.547.443L.012 26.39a.559.559 0 00.547.675h1.579v10.377a.559.559 0 00.559.56h32.605a.56.56 0 00.56-.56V27.064h1.578a.559.559 0 00.547-.675zM3.149 16.962h15.16l-1.901 8.983H1.248l1.9-8.983zm.106 10.102H16.86a.56.56 0 00.547-.443l1.031-4.874v15.134H3.255v-9.817zm31.488 9.817H19.558V21.747l1.032 4.874a.559.559 0 00.547.443h13.606v9.817zM21.59 25.945l-1.901-8.983h15.16l1.9 8.983H21.59z" fill="#fff"/><path d="M9.778 33.963H5.52a.56.56 0 000 1.119h4.26a.56.56 0 000-1.119zm3.482 0h-1.264a.56.56 0 000 1.119h1.263a.56.56 0 000-1.119zM33.145 18.73h-4.26a.56.56 0 000 1.119h4.26a.56.56 0 000-1.12zm-6.477 0h-1.263a.56.56 0 000 1.119h1.263a.56.56 0 000-1.12zm-7.669-4.78a6.975 6.975 0 10-6.975-6.975 6.983 6.983 0 006.975 6.975zm0-12.831a5.856 5.856 0 11-5.856 5.856 5.862 5.862 0 015.856-5.856z" fill="#fff"/><path d="M17.624 9.187a.56.56 0 00.792 0l3.721-3.724a.56.56 0 00-.79-.79L18.018 8l-1.367-1.367a.56.56 0 00-.79.79l1.763 1.764z" fill="#fff"/></svg>