<svg width="40" height="38" fill="none" xmlns="http://www.w3.org/2000/svg"><path d="M37.344 32.841a2.623 2.623 0 00-2.62-2.703v-12.12l2.36-1.77a.656.656 0 00-.007-1.053l-5.628-4.113V3.931a.655.655 0 00.656-.655V.656A.655.655 0 0031.449 0h-6.551a.655.655 0 00-.655.655v2.62a.655.655 0 00.655.656v2.364l-4.855-3.548a.655.655 0 00-.773 0L2.235 15.195a.655.655 0 00-.006 1.053l2.358 1.77v12.12a2.624 2.624 0 00-2.619 2.703A2.62 2.62 0 002.622 38H36.69a2.62 2.62 0 00.653-5.159zM25.553 1.311h5.241v1.31h-5.241V1.31zm.655 5.896V3.93h3.931v6.194l-3.993-2.918h.062zm-6.552-3.12L35.59 15.731l-1.526 1.144L20.042 6.677a.655.655 0 00-.771 0L5.248 16.875l-1.525-1.144L19.656 4.087zM1.311 35.38a1.312 1.312 0 011.291-1.31h.002a.847.847 0 00.1.01.656.656 0 00.658-.877 1.289 1.289 0 01-.085-.443 1.312 1.312 0 011.31-1.31v5.24H2.622a1.312 1.312 0 01-1.31-1.31zm28.173 1.31h-7.862V22.277h7.862V36.69zm1.31 0V21.622a.655.655 0 00-.655-.655h-9.172a.655.655 0 00-.655.655V36.69H5.897V18.023L19.656 8.017l13.759 10.006V36.69h-2.62zm5.897 0h-1.966v-5.24a1.312 1.312 0 011.31 1.31c-.001.151-.03.302-.084.444a.654.654 0 00.657.877 1.35 1.35 0 00.1-.01h.002a1.31 1.31 0 01-.02 2.62z" fill="#fff"/><path d="M17.036 20.966H9.174a.655.655 0 00-.656.655v9.172a.655.655 0 00.656.655h7.862a.655.655 0 00.655-.655v-9.172a.655.655 0 00-.655-.655zm-.656 4.586h-2.62v-3.276h2.62v3.276zm-3.93-3.276v3.276H9.828v-3.276h2.62zm-2.621 4.586h2.62v3.276H9.83v-3.276zm3.93 3.276v-3.276h2.621v3.276h-2.62zm10.434-1.06a.655.655 0 10-1.21-.501.655.655 0 001.21.501z" fill="#fff"/></svg>