<svg width="39" height="38" fill="none" xmlns="http://www.w3.org/2000/svg"><path d="M27.458 25.373a14.091 14.091 0 10-16.909 0l-7.296 7.29a.613.613 0 00.496 1.042l4.84-.533v4.215a.613.613 0 00.38.564.612.612 0 00.668-.129l9.367-9.373 9.367 9.373a.612.612 0 00.943-.095.613.613 0 00.105-.34v-4.215l4.834.533a.612.612 0 00.496-1.041l-7.29-7.29zM6.138 14.106a12.866 12.866 0 1125.731 0 12.866 12.866 0 01-25.73 0zm3.474 17.92a.612.612 0 00-.478-.147l-3.78.417 6.224-6.224a13.857 13.857 0 006.017 2.052L9.814 35.91v-3.425a.613.613 0 00-.202-.46zm19.262-.153a.613.613 0 00-.478.147.614.614 0 00-.202.466v3.425l-7.781-7.787a13.857 13.857 0 006.016-2.052l6.225 6.224-3.78-.423z" fill="#fff"/><path d="M30.644 14.106a11.64 11.64 0 10-23.282 0 11.64 11.64 0 0023.282 0zM9.048 11.043h6.28a.614.614 0 00.435-.178l2.45-2.45a.613.613 0 00.178-.435V6.142a1.225 1.225 0 011.226 1.225v3.063a.613.613 0 00.612.613h5.514v1.225h-4.901v1.226h4.901v1.225h-4.901v1.225h4.901v1.225h-4.901v1.226h4.901v.613a.613.613 0 01-.613.612h-7.204l-2.322-1.158a.614.614 0 00-.276-.067H9.526a10.256 10.256 0 01-.937-4.289c.001-1.038.156-2.07.46-3.063zm1.134 8.577h4.999l2.322 1.158c.085.044.18.067.276.067h7.351a1.838 1.838 0 001.838-1.837V10.43a.613.613 0 00-.612-.612h-5.514v-2.45a2.45 2.45 0 00-2.45-2.452h-.613a.613.613 0 00-.613.613v2.2l-2.09 2.089h-5.55a10.415 10.415 0 11.656 9.802zM4.913 6.142a.613.613 0 00.612-.778l-.52-1.759.882-.643a.613.613 0 00.239-.613.613.613 0 00-.454-.496L4.245 1.51 3.632.34a.613.613 0 00-1.078 0l-.613 1.17-1.464.343a.613.613 0 00-.465.496.613.613 0 00.239.613l.894.643-.52 1.759a.613.613 0 00.238.668.613.613 0 00.71 0l1.502-1.116L4.55 6.001a.613.613 0 00.362.14zM3.939 2.87a.613.613 0 00-.252.662l.13.453-.38-.294a.613.613 0 00-.724 0l-.404.294.153-.453a.613.613 0 00-.227-.662l-.202-.128.43-.11a.613.613 0 00.385-.3l.227-.405.22.404a.613.613 0 00.392.3l.435.11-.183.13zm34.057-.52a.613.613 0 00-.465-.497l-1.428-.361-.613-1.17a.613.613 0 00-1.078 0l-.613 1.17-1.464.361a.612.612 0 00-.214 1.09l.882.644-.52 1.777a.613.613 0 00.238.668.613.613 0 00.71 0l1.502-1.115L36.409 6a.613.613 0 00.362.14.612.612 0 00.612-.777l-.496-1.759.882-.643a.613.613 0 00.227-.612zm-2.187.52a.612.612 0 00-.264.662l.13.453-.38-.294a.613.613 0 00-.724 0l-.404.294.153-.453a.613.613 0 00-.227-.662l-.177-.128.404-.11a.612.612 0 00.386-.3l.227-.405.22.404a.613.613 0 00.386.3l.435.11-.165.13z" fill="#fff"/></svg>