<svg width="17" height="21" fill="none" xmlns="http://www.w3.org/2000/svg"><path d="M15.273 11.951a.646.646 0 01.814.068h0a.646.646 0 01.016.913l-.003.003h0L8.975 20.06h0v.001a.646.646 0 01-.914 0l7.212-8.11zm0 0h-.017l-.07.071-6.023 6.023V1.395a.646.646 0 00-1.291 0v16.65L1.85 12.022h0l-.004-.003a.646.646 0 00-.913.016h0a.646.646 0 000 .897h0l.003.003 7.125 7.125 7.212-8.109z" fill="#FFC107" stroke="#3C3C3B" stroke-width=".5"/><path d="M8.06 20.061h0L8.516 20v.25s0 0 0 0a.643.643 0 00.456-.189h0l7.126-7.125h0l.003-.003a.646.646 0 000-.897h0a.646.646 0 00-.914-.016h0l-.003.003-6.668 6.668-6.668-6.668h0l-.004-.003a.646.646 0 00-.897 0h0a.646.646 0 00-.016.913h0l.003.003 7.125 7.125z" fill="#3C3C3B" stroke="#3C3C3B" stroke-width=".5"/><path d="M7.87 1.396v18.208a.646.646 0 001.292 0V1.396a.646.646 0 00-1.292 0z" fill="#3C3C3B" stroke="#3C3C3B" stroke-width=".5"/></svg>