<svg width="19" height="19" fill="none" xmlns="http://www.w3.org/2000/svg"><path d="M18.546 3.605a1.873 1.873 0 00-1.428-.624H3.462l-.137-1.02C3.177.86 2.404 0 1.565 0H.562A.56.56 0 000 .557a.56.56 0 00.562.556h1.003c.18 0 .563.378.646.995l1.609 11.95c.07.527.344 1.02.77 1.39.315.273.687.454 1.078.53-.16.29-.25.622-.25.975A2.06 2.06 0 007.486 19a2.06 2.06 0 002.067-2.047c0-.337-.083-.654-.229-.934h2.946c-.146.28-.23.597-.23.934A2.06 2.06 0 0014.109 19a2.06 2.06 0 002.067-2.047c0-.337-.082-.654-.228-.934h1.472a.56.56 0 00.563-.557.56.56 0 00-.563-.556H6.081c-.55 0-1.075-.456-1.147-.995l-.118-.873h11.098c.537 0 1.067-.203 1.492-.572.425-.369.699-.862.77-1.389l.806-5.988a1.835 1.835 0 00-.436-1.484zM8.429 16.953a.94.94 0 01-.943.934.94.94 0 01-.944-.934.94.94 0 01.944-.934.94.94 0 01.943.934zm6.622 0a.94.94 0 01-.943.934.94.94 0 01-.943-.934.94.94 0 01.943-.934.94.94 0 01.943.934zM17.7 4.338a.74.74 0 01.167.604l-.338 2.51h-3.824l.226-3.358h3.187a.76.76 0 01.582.244zm-7.982 7.586l-.226-3.358h3.011l-.226 3.358h-2.56zm-.301-4.471L9.19 4.094h3.613l-.226 3.359h-3.16zM8.064 4.094l.226 3.359H4.064l-.452-3.359h4.452zm-3.85 4.472h4.151l.226 3.358H4.666l-.452-3.358zm11.7 3.358h-2.51l.226-3.358h3.75l-.319 2.364c-.072.54-.598.994-1.147.994z" fill="#3C3C3B"/></svg>