<svg width="30" height="22" fill="none" xmlns="http://www.w3.org/2000/svg"><path d="M29.83 5.586V4.002c0-1.814-1.461-3.285-3.263-3.285H3.263C1.46.717 0 2.187 0 4.002v1.584c0 .162.13.294.291.294h29.247a.293.293 0 00.292-.294zM0 8.05v10.033c0 1.814 1.46 3.285 3.263 3.285h23.304c1.802 0 3.263-1.47 3.263-3.285V8.05a.292.292 0 00-.292-.294H.291A.292.292 0 000 8.051zm7.457 7.686a.935.935 0 01-.932.939h-.932a.935.935 0 01-.932-.939v-.939c0-.518.417-.938.932-.938h.932c.515 0 .932.42.932.938v.94z" fill="#3C3C3B"/></svg>