<svg width="19" height="20" fill="none" xmlns="http://www.w3.org/2000/svg"><path d="M17.815 10.335c-.1-.44-.324-.807-.67-1.105a2.173 2.173 0 00-1.193-.524c-1.428-.15-3.581-.224-6.46-.224-2.88 0-5.03.075-6.45.224a2.155 2.155 0 00-1.199.524 2.103 2.103 0 00-.675 1.105C.966 11.198.865 12.5.865 14.24c0 1.771.101 3.073.303 3.907.101.438.324.807.67 1.104.345.298.743.469 1.193.514 1.428.156 3.582.234 6.46.234 2.88 0 5.034-.078 6.461-.234.45-.045.846-.216 1.188-.514.341-.297.566-.666.675-1.104.202-.864.303-2.166.303-3.907 0-1.77-.101-3.073-.303-3.906zM5.79 11.462H4.544v6.35H3.38v-6.35H2.158v-1.049H5.79v1.05zm3.143 6.35H7.897v-.602c-.42.454-.815.68-1.188.68-.357 0-.582-.137-.675-.412-.062-.179-.093-.45-.093-.815v-4.364h1.036v4.063c0 .238.004.368.012.39.023.157.105.235.244.235.21 0 .431-.157.664-.47V12.3h1.036v5.514zm3.958-1.651c0 .543-.035.915-.104 1.116-.133.409-.408.614-.827.614-.373 0-.733-.205-1.083-.614v.536H9.841v-7.4h1.036v2.422c.334-.401.695-.602 1.083-.602.419 0 .694.208.826.625.07.193.105.561.105 1.104v2.199zm3.935-.915h-2.084v.97c0 .514.178.77.535.77.256 0 .412-.133.466-.401.015-.075.023-.301.023-.68h1.06v.144c0 .365-.009.58-.024.648-.023.2-.104.401-.244.602-.28.395-.7.592-1.258.592-.535 0-.954-.19-1.257-.57-.225-.275-.337-.706-.337-1.294v-1.931c0-.588.108-1.02.325-1.295.303-.379.718-.569 1.246-.569.52 0 .932.19 1.234.57.21.275.315.706.315 1.294v1.15z" fill="#FFBE00"/><path d="M11.4 13.137c-.178 0-.352.082-.523.245v3.36c.17.163.345.245.524.245.302 0 .454-.25.454-.748v-2.355c0-.498-.152-.747-.454-.747zm3.866 0c-.35 0-.524.253-.524.758v.514h1.047v-.514c0-.505-.174-.758-.523-.758zM5.115 4.453v3.025H6.28V4.453L7.687 0H6.5l-.79 2.935L4.882 0H3.648c.218.625.47 1.32.757 2.087.365 1.027.601 1.816.71 2.366zm4.132 3.103c.536 0 .947-.19 1.234-.57.218-.275.326-.714.326-1.316V3.716c0-.595-.109-1.03-.326-1.306-.287-.379-.698-.569-1.234-.569-.52 0-.927.19-1.222.57-.217.275-.326.71-.326 1.305V5.67c0 .595.109 1.034.326 1.316.295.38.702.57 1.222.57zm-.5-4.04c0-.514.167-.77.5-.77.334 0 .5.256.5.77v2.343c0 .521-.166.781-.5.781-.333 0-.5-.26-.5-.78V3.514zm3.701 4.04c.388 0 .788-.231 1.2-.693v.614h1.059V1.908h-1.06V6.16c-.232.32-.453.48-.663.48-.14 0-.222-.082-.245-.245-.008-.015-.011-.146-.011-.391V1.908h-1.06v4.398c0 .379.032.658.094.837.1.275.33.413.686.413z" fill="#FFBE00"/></svg>