<svg width="19" height="19" fill="none" xmlns="http://www.w3.org/2000/svg"><path d="M17.554 14.114l-3.44-2.295a1.004 1.004 0 00-1.346.219l-1.002 1.288a.428.428 0 01-.55.116l-.19-.105c-.632-.345-1.418-.774-3.003-2.358C6.44 9.393 6.01 8.607 5.664 7.976l-.104-.191a.429.429 0 01.113-.551l1.288-1.002c.412-.323.507-.908.219-1.345l-2.295-3.44a1 1 0 00-1.347-.304L2.1 2.007a2.03 2.03 0 00-.926 1.201c-.518 1.888-.128 5.146 4.671 9.947 3.818 3.817 6.66 4.844 8.614 4.844.45.002.897-.057 1.332-.174a2.027 2.027 0 001.2-.926l.866-1.438a1 1 0 00-.303-1.347zm-.185 1.057l-.864 1.439c-.19.326-.5.566-.864.67-1.742.478-4.787.081-9.395-4.526C1.638 8.146 1.242 5.1 1.72 3.358c.104-.364.344-.674.671-.865L3.83 1.63a.433.433 0 01.584.131l1.247 1.872 1.046 1.569a.436.436 0 01-.095.583L5.324 6.787a.991.991 0 00-.262 1.273l.102.186c.362.664.812 1.49 2.456 3.133 1.643 1.643 2.469 2.093 3.132 2.455l.186.103a.991.991 0 001.273-.263l1.002-1.288a.436.436 0 01.584-.094l3.44 2.294a.433.433 0 01.132.585z" fill="#3C3C3B" stroke="#3C3C3B" stroke-width=".3"/></svg>