<svg width="20" height="20" fill="none" xmlns="http://www.w3.org/2000/svg"><path d="M14.245 0H5.287A5.293 5.293 0 000 5.287v8.958a5.293 5.293 0 005.287 5.287h8.958a5.293 5.293 0 005.287-5.287V5.287A5.293 5.293 0 0014.245 0zM9.766 15.107a5.347 5.347 0 01-5.34-5.341 5.347 5.347 0 015.34-5.34 5.347 5.347 0 015.34 5.34 5.347 5.347 0 01-5.34 5.34zm5.468-9.422a1.58 1.58 0 01-1.578-1.578c0-.87.708-1.578 1.578-1.578.87 0 1.579.708 1.579 1.578a1.58 1.58 0 01-1.579 1.578z" fill="#FFBE00"/><path d="M9.766 5.57a4.2 4.2 0 00-4.195 4.196 4.2 4.2 0 004.195 4.195 4.2 4.2 0 004.196-4.195A4.2 4.2 0 009.766 5.57zm5.468-1.896a.434.434 0 10.001.868.434.434 0 000-.868z" fill="#FFBE00"/></svg>