<svg width="21" height="20" fill="none" xmlns="http://www.w3.org/2000/svg"><rect x=".784" width="20" height="20" rx="4.1" fill="#FFBE00"/><path d="M13.816 2.382l-1.918-.003c-2.156 0-3.55 1.43-3.55 3.642V7.7H6.42a.302.302 0 00-.301.302v2.432c0 .167.135.302.301.302h1.93v6.139c0 .166.135.301.301.301h2.518a.302.302 0 00.301-.301v-6.139h2.256a.302.302 0 00.302-.302V8.002a.302.302 0 00-.301-.302H11.47V6.277c0-.684.163-1.032 1.055-1.032h1.292a.302.302 0 00.302-.302V2.684a.302.302 0 00-.302-.302z" fill="#fff"/></svg>