<svg width="36" height="36" fill="none" xmlns="http://www.w3.org/2000/svg"><path d="M1.332 18.32a.739.739 0 00-.435.943l.46 1.274 3.501-3.526-3.526 1.308zm3.314 11.325l2.108 5.84a.729.729 0 00.942.439l2.327-.864-5.377-5.416zm31.309-4.985l-2.413-6.683-5.792 5.833 2.87-1.065a.727.727 0 01.94.437.738.738 0 01-.433.946l-3.647 1.354a.732.732 0 01-.94-.437l-.001-.013-6.138 6.18 15.12-5.609a.737.737 0 00.434-.944zm-.17-12.07L24.07.793a.73.73 0 00-1.036 0L1.068 22.913a.742.742 0 000 1.043l11.715 11.797c.142.144.33.217.517.217a.733.733 0 00.519-.216l21.966-22.12a.743.743 0 000-1.044zm-26.36 8.418l-2.929 2.949a.733.733 0 01-1.036 0 .742.742 0 010-1.043l2.928-2.95a.73.73 0 011.036 0 .742.742 0 01.001 1.044zm12.646.936c-.519.522-1.223.773-2.007.773-1.294 0-2.807-.683-4.072-1.959-.926-.932-1.576-2.046-1.83-3.138-.28-1.216-.05-2.275.652-2.983.702-.708 1.753-.94 2.963-.656 1.084.255 2.19.908 3.116 1.842 2.034 2.046 2.553 4.736 1.178 6.121zm9.32-8.31l-2.928 2.95a.733.733 0 01-1.037 0 .741.741 0 010-1.043l2.929-2.95a.73.73 0 011.035 0 .742.742 0 01.002 1.043z" fill="#3C3C3B"/></svg>