<svg width="13" height="14" fill="none" xmlns="http://www.w3.org/2000/svg"><circle cx="6.5" cy="7.5" r="4.5" fill="#3C3C3B"/><path d="M12.373 7.302a.397.397 0 010-.35l.506-1.034a1.176 1.176 0 00-.508-1.562l-1.016-.54a.397.397 0 01-.207-.283l-.198-1.134a1.176 1.176 0 00-1.329-.965l-1.14.161a.397.397 0 01-.333-.108l-.827-.8a1.176 1.176 0 00-1.642 0l-.827.8a.397.397 0 01-.334.108L3.38 1.434a1.176 1.176 0 00-1.329.965l-.198 1.134a.397.397 0 01-.207.283l-1.016.54c-.566.3-.789.986-.507 1.562L.627 6.95a.397.397 0 010 .351L.12 8.336a1.176 1.176 0 00.51 1.562l1.016.539c.11.058.185.162.207.284l.198 1.133a1.175 1.175 0 001.329.965l1.14-.16a.397.397 0 01.333.108l.827.8a1.177 1.177 0 001.642 0l.827-.8a.397.397 0 01.334-.109l1.139.161a1.176 1.176 0 001.329-.965l.198-1.133a.397.397 0 01.207-.284l1.016-.54c.566-.3.789-.986.508-1.561l-.506-1.034zM4.937 3.61c.79 0 1.433.643 1.433 1.433s-.643 1.433-1.433 1.433a1.434 1.434 0 010-2.866zm-.74 6.371a.39.39 0 01-.552 0 .39.39 0 010-.552l5.157-5.157a.39.39 0 01.553.552L4.198 9.981zm3.866.662c-.79 0-1.433-.643-1.433-1.433s.643-1.432 1.433-1.432 1.432.643 1.432 1.432c0 .79-.642 1.433-1.432 1.433z" fill="#FFBE00"/><path d="M8.063 8.56a.652.652 0 10.001 1.303.652.652 0 00-.001-1.304zM4.937 4.391a.652.652 0 10.002 1.304.652.652 0 00-.002-1.304z" fill="#FFBE00"/></svg>