<svg width="21" height="20" fill="none" xmlns="http://www.w3.org/2000/svg"><rect x=".199" width="20" height="20" rx="4.1" fill="#FFBE00"/><path d="M18.232 13.658c-.044-.073-.316-.664-1.625-1.879-1.37-1.272-1.186-1.065.464-3.265 1.005-1.339 1.407-2.157 1.281-2.507-.12-.333-.858-.245-.858-.245l-2.458.014s-.182-.024-.318.057c-.132.08-.217.263-.217.263s-.39 1.037-.909 1.918c-1.095 1.86-1.534 1.958-1.713 1.843-.416-.27-.311-1.082-.311-1.659 0-1.802.273-2.554-.533-2.748-.268-.064-.464-.107-1.148-.114-.878-.01-1.62.003-2.041.208-.28.137-.496.443-.364.46.162.022.53.1.726.365.252.343.243 1.114.243 1.114s.145 2.121-.338 2.385c-.333.181-.788-.188-1.764-1.876-.5-.864-.878-1.82-.878-1.82s-.073-.178-.203-.273c-.157-.116-.378-.152-.378-.152l-2.337.014s-.35.01-.48.163c-.114.136-.009.416-.009.416s1.83 4.28 3.902 6.439c1.9 1.978 4.058 1.848 4.058 1.848H11s.296-.032.446-.195c.139-.15.134-.43.134-.43s-.02-1.311.59-1.504c.6-.19 1.37 1.268 2.188 1.829.617.424 1.087.331 1.087.331l2.185-.03s1.143-.071.6-.97z" fill="#fff"/></svg>