<svg width="43" height="45" fill="none" xmlns="http://www.w3.org/2000/svg"><path fill-rule="evenodd" clip-rule="evenodd" d="M27.067 3.317c.542 4.677 1.095 9.293 1.659 13.849.53 4.478 1.061 8.923 1.575 13.268h.597c.52-4.423 1.018-8.751 1.493-12.986.476-4.235.95-8.392 1.426-12.472l4.81 1.127 4.23.996v30.7l-4.462 1.044V15.209h-.465c-.43 3.947-.862 7.944-1.293 11.991-.431 4.08-.88 8.293-1.327 12.422l-4.694 1.095-5.373 1.26c-.58-4.56-1.194-9.204-1.791-13.915-.598-4.71-1.244-9.62-1.875-14.545h-.73v29.456l-8.176 1.907V0l7.795 1.824 6.634 1.56" fill="#EBAF00"/><path fill-rule="evenodd" clip-rule="evenodd" d="M12.655 0L0 7.082v30.716l12.655 7.082V0z" fill="#3C3C3B"/><path opacity=".23" fill-rule="evenodd" clip-rule="evenodd" d="M0 37.798l4.296-2.637-.365 4.826L0 37.798z" fill="#575756"/><path opacity=".23" fill-rule="evenodd" clip-rule="evenodd" d="M0 33.752l4.296 1.41L0 37.797V33.75z" fill="#1D1D1B"/><path opacity=".23" fill-rule="evenodd" clip-rule="evenodd" d="M12.654 44.88v-6.982l-4.876 1.31 4.876 5.672z" fill="#575756"/><path opacity=".23" fill-rule="evenodd" clip-rule="evenodd" d="M4.296 35.16l5.904-6.517-2.422 10.565-3.482-4.047z" fill="#878787"/><path opacity=".23" fill-rule="evenodd" clip-rule="evenodd" d="M12.654 37.898l-3.665-3.98-1.21 5.29 4.875-1.31zM7.53 31.58l-5.092-1.494 1.857 5.076 3.235-3.583z" fill="#1D1D1B"/><path opacity=".23" fill-rule="evenodd" clip-rule="evenodd" d="M1.244 26.818l3.217-4.793-2.023 8.06-1.194-3.267z" fill="#575756"/><path opacity=".23" fill-rule="evenodd" clip-rule="evenodd" d="M12.654 18.94L8.79 26.784l3.864-1.36V18.94z" fill="#1D1D1B"/><path opacity=".23" fill-rule="evenodd" clip-rule="evenodd" d="M0 18.99l2.256 1.974L0 21.628V18.99z" fill="#575756"/><path opacity=".23" fill-rule="evenodd" clip-rule="evenodd" d="M3.93 24.148l3.6 7.43-5.092-1.492 1.493-5.938z" fill="#6F6F6E"/><path opacity=".23" fill-rule="evenodd" clip-rule="evenodd" d="M12.654 44.88l-8.359-9.719-.365 4.826 8.724 4.893z" fill="#1D1D1B"/><path opacity=".23" fill-rule="evenodd" clip-rule="evenodd" d="M12.655 30.85l1.774-3.583-1.774-1.841v5.423z" fill="#F9CD4A"/><path opacity=".69" fill-rule="evenodd" clip-rule="evenodd" d="M20.831 42.973l-8.176-5.075v6.982l8.176-1.907z" fill="#A85B04"/><path opacity=".69" fill-rule="evenodd" clip-rule="evenodd" d="M20.831 36.09l-4.096 4.345 4.096 2.537V36.09z" fill="#B57000"/><path opacity=".69" fill-rule="evenodd" clip-rule="evenodd" d="M12.655 30.85l4.08 9.585-4.08-2.537v-7.049z" fill="#BB7D00"/><path opacity=".69" fill-rule="evenodd" clip-rule="evenodd" d="M20.831 36.09l-5.938-.017 1.841 4.362 4.097-4.346z" fill="#D5A000"/><path opacity=".69" fill-rule="evenodd" clip-rule="evenodd" d="M20.831 29.787l-2.969 6.286 2.97.017v-6.303z" fill="#EFAD0D"/><path opacity=".69" fill-rule="evenodd" clip-rule="evenodd" d="M14.893 36.073l1.775-5.357 1.194 5.357h-2.968z" fill="#F3B527"/><path opacity=".69" fill-rule="evenodd" clip-rule="evenodd" d="M16.668 30.716l4.163-.929-2.969 6.286-1.194-5.357z" fill="#E19E00"/><path opacity=".69" fill-rule="evenodd" clip-rule="evenodd" d="M20.831 25.294l-4.163 5.423 4.163-.929v-4.494z" fill="#F3B71B"/><path opacity=".69" fill-rule="evenodd" clip-rule="evenodd" d="M17.249 23.087l-1.277 3.433 3.615-1.708-2.338-1.725zm3.582-4.064l-.979 2.389.98 1.227v-3.616z" fill="#F9CD4A"/></svg>