<svg width="136" height="89" fill="none" xmlns="http://www.w3.org/2000/svg"><path fill-rule="evenodd" clip-rule="evenodd" d="M119.415 58.142v3.648h6.086v11.925h4.197V61.79h6.086v-3.648h-16.369zm-18.543 0v15.656h3.997l8.293-9.951v9.951h4.13V58.142h-4.047l-8.293 9.95v-9.95h-4.08zm-15.341 0l-2.057 11.012a.979.979 0 01-1.045.88h-2.023v3.764h2.156a4.495 4.495 0 004.976-4.113l1.476-7.812h4.975v11.925h4.163V58.142H85.531zm-6.137 7.844a8.408 8.408 0 00-8.807-8.292 8.29 8.29 0 00-9.462 8.21 8.293 8.293 0 009.462 8.21 8.41 8.41 0 008.807-8.21v.082zm-13.45 0a4.627 4.627 0 114.643 4.66 4.477 4.477 0 01-4.644-4.743v.083zm-22.69-7.844v15.656h4.164v-6.286h7.662v6.203h4.196V58.142H55.08v5.639h-7.662v-5.64h-4.163zm-2.52 7.844a8.41 8.41 0 00-8.807-8.292 8.29 8.29 0 00-9.463 8.21 8.293 8.293 0 009.463 8.21 8.41 8.41 0 008.807-8.21v.082zm-13.451 0a4.478 4.478 0 014.644-4.677 4.676 4.676 0 010 9.338 4.46 4.46 0 01-4.644-4.744v.083zM0 58.142v15.656h4.047v-9.934l4.478 9.851h3.317l4.577-9.852v9.852h4.163V58.142h-4.975L10.333 68.59h-.15l-4.86-10.448H0z" fill="#3C3C3B"/><path fill-rule="evenodd" clip-rule="evenodd" d="M73.067 3.317c.542 4.677 1.095 9.293 1.659 13.849.53 4.478 1.061 8.923 1.575 13.268h.597c.52-4.423 1.018-8.751 1.493-12.986.475-4.235.95-8.392 1.426-12.472l4.81 1.127 4.23.996v30.7l-4.462 1.044V15.209h-.465c-.43 3.947-.862 7.944-1.293 11.991-.431 4.08-.88 8.293-1.327 12.422l-4.694 1.095-5.373 1.26c-.58-4.56-1.194-9.204-1.791-13.915-.598-4.71-1.244-9.62-1.875-14.545h-.73v29.456l-8.176 1.907V0l7.795 1.824 6.634 1.56" fill="#EBAF00"/><path fill-rule="evenodd" clip-rule="evenodd" d="M58.655 0L46 7.082v30.716l12.655 7.082V0z" fill="#3C3C3B"/><path opacity=".23" fill-rule="evenodd" clip-rule="evenodd" d="M46 37.798l4.296-2.637-.365 4.826L46 37.798z" fill="#575756"/><path opacity=".23" fill-rule="evenodd" clip-rule="evenodd" d="M46 33.752l4.296 1.41L46 37.797V33.75z" fill="#1D1D1B"/><path opacity=".23" fill-rule="evenodd" clip-rule="evenodd" d="M58.654 44.88v-6.982l-4.876 1.31 4.876 5.672z" fill="#575756"/><path opacity=".23" fill-rule="evenodd" clip-rule="evenodd" d="M50.295 35.16l5.905-6.517-2.422 10.565-3.483-4.047z" fill="#878787"/><path opacity=".23" fill-rule="evenodd" clip-rule="evenodd" d="M58.654 37.898l-3.665-3.98-1.21 5.29 4.875-1.31zM53.53 31.58l-5.092-1.494 1.857 5.076 3.235-3.583z" fill="#1D1D1B"/><path opacity=".23" fill-rule="evenodd" clip-rule="evenodd" d="M47.244 26.818l3.217-4.793-2.023 8.06-1.194-3.267z" fill="#575756"/><path opacity=".23" fill-rule="evenodd" clip-rule="evenodd" d="M58.654 18.94l-3.864 7.844 3.864-1.36V18.94z" fill="#1D1D1B"/><path opacity=".23" fill-rule="evenodd" clip-rule="evenodd" d="M46 18.99l2.256 1.974-2.256.664V18.99z" fill="#575756"/><path opacity=".23" fill-rule="evenodd" clip-rule="evenodd" d="M49.93 24.148l3.6 7.43-5.092-1.492 1.493-5.938z" fill="#6F6F6E"/><path opacity=".23" fill-rule="evenodd" clip-rule="evenodd" d="M58.654 44.88l-8.359-9.719-.364 4.826 8.723 4.893z" fill="#1D1D1B"/><path opacity=".23" fill-rule="evenodd" clip-rule="evenodd" d="M58.654 30.85l1.775-3.583-1.775-1.841v5.423z" fill="#F9CD4A"/><path opacity=".69" fill-rule="evenodd" clip-rule="evenodd" d="M66.831 42.973l-8.177-5.075v6.982l8.177-1.907z" fill="#A85B04"/><path opacity=".69" fill-rule="evenodd" clip-rule="evenodd" d="M66.831 36.09l-4.097 4.345 4.097 2.537V36.09z" fill="#B57000"/><path opacity=".69" fill-rule="evenodd" clip-rule="evenodd" d="M58.654 30.85l4.08 9.585-4.08-2.537v-7.049z" fill="#BB7D00"/><path opacity=".69" fill-rule="evenodd" clip-rule="evenodd" d="M66.831 36.09l-5.938-.017 1.841 4.362 4.097-4.346z" fill="#D5A000"/><path opacity=".69" fill-rule="evenodd" clip-rule="evenodd" d="M66.831 29.787l-2.969 6.286 2.97.017v-6.303z" fill="#EFAD0D"/><path opacity=".69" fill-rule="evenodd" clip-rule="evenodd" d="M60.894 36.073l1.774-5.357 1.194 5.357h-2.968z" fill="#F3B527"/><path opacity=".69" fill-rule="evenodd" clip-rule="evenodd" d="M62.668 30.716l4.163-.929-2.969 6.286-1.194-5.357z" fill="#E19E00"/><path opacity=".69" fill-rule="evenodd" clip-rule="evenodd" d="M66.831 25.294l-4.163 5.423 4.163-.929v-4.494z" fill="#F3B71B"/><path opacity=".69" fill-rule="evenodd" clip-rule="evenodd" d="M63.249 23.087l-1.277 3.433 3.615-1.708-2.338-1.725zm3.582-4.064l-.978 2.389.978 1.227v-3.616z" fill="#F9CD4A"/><path d="M14 79.928h8.676v1.85H19.48v5.861h-2.212v-5.861H14v-1.85zm16.069 1.082c.404.35.727.778.947 1.255a3.594 3.594 0 010 3.025 3.74 3.74 0 01-.947 1.255 4.773 4.773 0 01-3.055 1.094 4.773 4.773 0 01-3.055-1.094 3.756 3.756 0 01-.948-1.255 3.594 3.594 0 010-3.025 3.73 3.73 0 01.948-1.255 4.593 4.593 0 013.055-1.082 4.593 4.593 0 013.055 1.082zm-4.691 1.184a2.093 2.093 0 00-.5.727 2.01 2.01 0 00-.149.857 2.09 2.09 0 00.12.882c.104.283.267.543.481.763.214.22.474.395.762.516a2.383 2.383 0 001.83 0 2.29 2.29 0 00.761-.516c.214-.22.378-.48.481-.763a2.08 2.08 0 00.12-.882 2.01 2.01 0 00-.148-.858 2.092 2.092 0 00-.5-.726 2.474 2.474 0 00-1.63-.605c-.603 0-1.184.216-1.628.605zm6.937-2.264h4.523a3.144 3.144 0 012.288.864 2.876 2.876 0 01.897 2.2 2.722 2.722 0 01-.897 2.175 3.247 3.247 0 01-2.288.823H34.35v1.647h-2.034V79.93zm2.034 1.877v2.322h2.409c.32.01.633-.095.883-.297a1.027 1.027 0 00.334-.837 1.142 1.142 0 00-.334-.864 1.224 1.224 0 00-.883-.324h-2.409zm6.642-1.879h6.748v1.864h-4.824v5.847h-1.924v-7.711zm15.105 1.082c.404.35.727.778.947 1.254a3.595 3.595 0 010 3.026 3.74 3.74 0 01-.947 1.255 4.773 4.773 0 01-3.055 1.094 4.773 4.773 0 01-3.055-1.094 3.756 3.756 0 01-.948-1.255 3.595 3.595 0 010-3.026 3.74 3.74 0 01.948-1.255 4.817 4.817 0 013.055-1.081c1.121 0 2.205.384 3.055 1.081zm-4.691 1.184a2.091 2.091 0 00-.5.726 2.008 2.008 0 00-.149.857c-.024.3.017.6.12.883.104.283.268.543.481.763.214.22.474.395.762.515a2.382 2.382 0 001.83 0c.288-.12.547-.295.761-.515.214-.22.378-.48.481-.763a2.08 2.08 0 00.12-.883 2.01 2.01 0 00-.148-.857 2.094 2.094 0 00-.5-.726 2.474 2.474 0 00-1.63-.605c-.603 0-1.184.216-1.628.605zm6.937-2.264h4.864a2.42 2.42 0 011.678.593c.216.189.387.425.5.692.114.267.167.557.156.848a1.38 1.38 0 01-.107.678 1.343 1.343 0 01-.418.537c.332.19.604.47.787.812.183.341.27.729.25 1.118.006.325-.055.647-.18.945a2.275 2.275 0 01-.542.784 2.38 2.38 0 01-.796.531 2.305 2.305 0 01-.935.17h-5.243l-.014-7.709zm1.993 1.85v1.025h2.858a.371.371 0 00.275-.162c.08-.1.126-.222.131-.35a.591.591 0 00-.117-.352.421.421 0 00-.355-.162h-2.792zm0 2.807v1.202h3.212a.526.526 0 00.393-.162.554.554 0 00.158-.418.645.645 0 00-.17-.446.588.588 0 00-.447-.176h-3.146zm6.683-4.659h1.923v1.66h2.264a3.03 3.03 0 012.176.81c.283.268.505.6.652.971.147.372.214.774.196 1.176.01.418-.064.833-.216 1.217-.153.384-.381.73-.67 1.011a2.928 2.928 0 01-2.176.864h-4.149v-7.71zm1.923 3.483v2.363h2.125c.835 0 1.265-.405 1.265-1.229a1.102 1.102 0 00-.057-.47 1.045 1.045 0 00-.246-.394 1.375 1.375 0 00-.95-.27h-2.137zm5.806-3.483h1.91v7.71h-1.96l.05-7.71zm3.839.243h1.947v4.748l3.895-4.748h1.87v7.469H84.35v-4.71l-3.895 4.709h-1.87V80.17zM83.882 78l.91 1.073a3.928 3.928 0 01-1.17.706 4.19 4.19 0 01-2.362 0 3.798 3.798 0 01-1.156-.706L81.026 78c.415.29.91.441 1.415.432A2.466 2.466 0 0083.882 78zm10.1 1.928h5.945v5.59h.83v3.085h-1.672l-.14-1.285h-5.103l-.128 1.285h-1.633V85.52h.893l1.008-5.591zm1.595 1.696l-.625 3.856h3.036v-3.856h-2.411zm13.539-.614c.403.351.725.779.946 1.255.22.477.334.992.334 1.512a3.61 3.61 0 01-.334 1.513 3.768 3.768 0 01-.946 1.254 4.779 4.779 0 01-3.057 1.095 4.775 4.775 0 01-3.057-1.095 3.757 3.757 0 01-.947-1.254 3.605 3.605 0 01-.334-1.513c0-.52.114-1.035.334-1.512.221-.476.543-.904.947-1.255a4.818 4.818 0 013.057-1.082c1.122 0 2.206.384 3.057 1.082zm-4.697 1.184a2.097 2.097 0 00-.5.727 2.015 2.015 0 00-.148.856c0 .286.059.569.173.833.115.264.283.503.495.705.212.202.463.362.74.472a2.378 2.378 0 001.746 0 2.3 2.3 0 00.74-.472c.211-.202.379-.441.494-.705.115-.264.174-.547.174-.833a2.001 2.001 0 00-.149-.856 2.08 2.08 0 00-.499-.727 2.483 2.483 0 00-1.633-.606 2.48 2.48 0 00-1.633.606zm6.941-2.266h2.494l2.275 5.145 2.48-5.145H121v7.711h-1.954v-4.848l-2.133 4.848h-1.568l-2.057-4.848v4.848h-1.928v-7.711z" fill="#B1B2B3"/></svg>