<svg width="17" height="17" fill="none" xmlns="http://www.w3.org/2000/svg"><path d="M2.138 2.138A7.251 7.251 0 017.298 0c1.95 0 3.783.76 5.162 2.138a7.251 7.251 0 012.138 5.16 7.245 7.245 0 01-1.798 4.797l4.054 4.054a.499.499 0 11-.705.705L12.095 12.8A7.245 7.245 0 017.3 14.598c-1.95 0-3.783-.76-5.161-2.138A7.25 7.25 0 010 7.299c0-1.95.76-3.783 2.138-5.161zm.705 9.617a6.309 6.309 0 008.912 0 6.309 6.309 0 000-8.912A6.282 6.282 0 007.299 1a6.283 6.283 0 00-4.456 1.843 6.309 6.309 0 000 8.912z" fill="#B1B2B3"/></svg>