<svg width="40" height="38" viewBox="0 0 40 38" fill="none" xmlns="http://www.w3.org/2000/svg">
<path d="M37.3445 32.8412C37.3455 32.8134 37.3459 32.7859 37.3459 32.7586C37.3452 32.0638 37.0688 31.3977 36.5775 30.9064C36.0862 30.4151 35.4201 30.1387 34.7253 30.1379V18.0172L37.0839 16.2483C37.1658 16.1868 37.2322 16.107 37.2777 16.0153C37.3232 15.9236 37.3466 15.8225 37.3459 15.7201C37.3453 15.6177 37.3207 15.5169 37.274 15.4257C37.2274 15.3345 37.16 15.2556 37.0773 15.1952L31.4494 11.0824V3.93103C31.6232 3.93103 31.7898 3.86201 31.9127 3.73914C32.0355 3.61627 32.1046 3.44962 32.1046 3.27586V0.655172C32.1046 0.48141 32.0355 0.314764 31.9127 0.191896C31.7898 0.0690269 31.6232 0 31.4494 0H24.8977C24.7239 0 24.5573 0.0690269 24.4344 0.191896C24.3115 0.314764 24.2425 0.48141 24.2425 0.655172V3.27586C24.2425 3.44962 24.3115 3.61627 24.4344 3.73914C24.5573 3.86201 24.7239 3.93103 24.8977 3.93103V6.29465L20.0428 2.74689C19.9306 2.6649 19.7953 2.62071 19.6563 2.62071C19.5173 2.62071 19.3819 2.6649 19.2697 2.74689L2.23526 15.1952C2.15258 15.2556 2.08522 15.3345 2.03857 15.4257C1.99193 15.5169 1.9673 15.6177 1.96666 15.7201C1.96602 15.8225 1.9894 15.9236 2.0349 16.0153C2.08041 16.107 2.14679 16.1868 2.2287 16.2483L4.58733 18.0172V30.1379C3.89251 30.1387 3.22639 30.4151 2.73508 30.9064C2.24377 31.3977 1.96742 32.0638 1.96664 32.7586C1.96664 32.7859 1.96713 32.8134 1.96811 32.8412C1.35003 33.0001 0.811174 33.3791 0.45265 33.907C0.0941251 34.435 -0.0594297 35.0756 0.020796 35.7088C0.101022 36.3419 0.409514 36.924 0.888393 37.3458C1.36727 37.7677 1.98362 38.0003 2.62181 38H36.6908C37.329 38.0003 37.9453 37.7677 38.4242 37.3458C38.9031 36.924 39.2116 36.3419 39.2918 35.7088C39.372 35.0756 39.2185 34.435 38.8599 33.907C38.5014 33.3791 37.9626 33.0001 37.3445 32.8412ZM25.5528 1.31034H30.7942V2.62069H25.5528V1.31034ZM26.208 7.2069V3.93103H30.139V10.1249L26.146 7.2069H26.208ZM19.6563 4.08729L35.5897 15.731L34.0641 16.8752L20.0417 6.67703C19.9297 6.59556 19.7948 6.55168 19.6563 6.55168C19.5178 6.55168 19.3829 6.59556 19.2709 6.67703L5.24848 16.8752L3.72291 15.731L19.6563 4.08729ZM1.31146 35.3793C1.31183 35.0353 1.44731 34.7052 1.68873 34.4601C1.93014 34.215 2.25817 34.0745 2.60215 34.069H2.60371C2.6372 34.0736 2.6707 34.0776 2.70485 34.0799C2.81342 34.0867 2.92199 34.0664 3.02076 34.0208C3.11953 33.9752 3.20539 33.9057 3.27059 33.8187C3.33579 33.7316 3.37827 33.6296 3.39422 33.522C3.41016 33.4144 3.39906 33.3045 3.36191 33.2023C3.30769 33.0605 3.27894 32.9103 3.27698 32.7586C3.27739 32.4112 3.41558 32.0782 3.66123 31.8325C3.90687 31.5869 4.23993 31.4487 4.58733 31.4483V36.6897H2.62181C2.27441 36.6892 1.94136 36.5511 1.69571 36.3054C1.45006 36.0598 1.31187 35.7267 1.31146 35.3793ZM29.4839 36.6897H21.6218V22.2759H29.4839V36.6897ZM30.7942 36.6897V21.6207C30.7942 21.4469 30.7252 21.2803 30.6023 21.1574C30.4795 21.0345 30.3128 20.9655 30.139 20.9655H20.9666C20.7929 20.9655 20.6262 21.0345 20.5034 21.1574C20.3805 21.2803 20.3115 21.4469 20.3115 21.6207V36.6897H5.89767V18.0233L19.6563 8.01702L33.4149 18.0233V36.6897H30.7942ZM36.6908 36.6897H34.7253V31.4483C35.0727 31.4487 35.4057 31.5869 35.6514 31.8325C35.897 32.0782 36.0352 32.4112 36.0356 32.7586C36.0337 32.9105 36.0049 33.0608 35.9507 33.2026C35.9135 33.3048 35.9024 33.4147 35.9184 33.5223C35.9343 33.6299 35.9768 33.7319 36.042 33.819C36.1072 33.9061 36.1931 33.9755 36.2918 34.0211C36.3906 34.0667 36.4992 34.087 36.6077 34.0802C36.6419 34.078 36.6754 34.074 36.7089 34.0693H36.7104C37.058 34.0719 37.3902 34.2125 37.6341 34.46C37.878 34.7076 38.0135 35.0419 38.0109 35.3895C38.0083 35.737 37.8678 36.0692 37.6202 36.3131C37.3726 36.557 37.0383 36.6926 36.6908 36.69V36.6897Z" fill="white"/>
<path d="M17.0356 20.9656H9.17354C8.99978 20.9656 8.83314 21.0346 8.71027 21.1575C8.5874 21.2803 8.51837 21.447 8.51837 21.6207V30.7932C8.51837 30.9669 8.5874 31.1336 8.71027 31.2564C8.83314 31.3793 8.99978 31.4483 9.17354 31.4483H17.0356C17.2094 31.4483 17.376 31.3793 17.4989 31.2564C17.6218 31.1336 17.6908 30.9669 17.6908 30.7932V21.6207C17.6908 21.447 17.6218 21.2803 17.4989 21.1575C17.376 21.0346 17.2094 20.9656 17.0356 20.9656ZM16.3804 25.5518H13.7598V22.2759H16.3804V25.5518ZM12.4494 22.2759V25.5518H9.82872V22.2759H12.4494ZM9.82872 26.8621H12.4494V30.138H9.82872V26.8621ZM13.7598 30.138V26.8621H16.3804V30.138H13.7598Z" fill="white"/>
<path d="M24.1926 29.0783C24.3311 28.744 24.1724 28.3607 23.8381 28.2223C23.5038 28.0838 23.1205 28.2425 22.982 28.5768C22.8436 28.9111 23.0023 29.2944 23.3366 29.4329C23.6709 29.5713 24.0542 29.4126 24.1926 29.0783Z" fill="white"/>
</svg>
