<svg width="38" height="38" viewBox="0 0 38 38" fill="none" xmlns="http://www.w3.org/2000/svg">
<path d="M37.3667 34.2001H35.4667V22.1668C35.4664 21.817 35.1826 21.5337 34.8329 21.5339C34.6265 21.5341 34.4331 21.6348 34.3146 21.8039L25.448 34.4706C25.2475 34.7572 25.3174 35.1521 25.6041 35.3525C25.7104 35.4268 25.8369 35.4667 25.9667 35.4668H34.2V37.3668C34.2 37.7166 34.4836 38.0001 34.8333 38.0001C35.1831 38.0001 35.4667 37.7166 35.4667 37.3668V35.4668H37.3667C37.7164 35.4668 38 35.1832 38 34.8335C38 34.4837 37.7164 34.2001 37.3667 34.2001ZM34.2 34.2001H27.1827L34.2 24.1757V34.2001Z" fill="white"/>
<path d="M25.9667 36.7333H18.4686L25.4397 28.5247C25.4556 28.5058 25.4704 28.4862 25.4841 28.4658C26.7955 26.5248 26.3587 23.8968 24.4897 22.4846C22.2172 20.8518 19.0514 21.3704 17.4186 23.6429C16.7995 24.5046 16.4665 25.5389 16.4667 26.6C16.4667 26.9497 16.7502 27.2333 17.1 27.2333C17.4498 27.2333 17.7333 26.9497 17.7333 26.6C17.7331 24.5013 19.4343 22.7998 21.5329 22.7996C22.3284 22.7995 23.1038 23.049 23.75 23.5131C25.0592 24.5162 25.364 26.3637 24.4467 27.7343L16.6174 36.9569C16.3911 37.2236 16.4238 37.6232 16.6905 37.8496C16.8049 37.9466 16.95 37.9999 17.1 38H25.9667C26.3164 38 26.6 37.7164 26.6 37.3667C26.6 37.0169 26.3164 36.7333 25.9667 36.7333Z" fill="white"/>
<path d="M17.1139 33.5787C17.1272 33.2292 16.8544 32.9352 16.5049 32.9219C16.5048 32.9219 16.5047 32.9219 16.5047 32.9219C8.24204 32.6152 1.61033 25.9954 1.28883 17.7333H3.8C4.14976 17.7333 4.43333 17.4498 4.43333 17.1C4.43333 16.7502 4.14976 16.4667 3.8 16.4667H1.28883C1.60574 8.21916 8.21908 1.60605 16.4667 1.28947V3.16667C16.4667 3.51642 16.7502 3.8 17.1 3.8C17.4498 3.8 17.7333 3.51642 17.7333 3.16667V1.28947C25.868 1.60407 32.4335 8.04555 32.9029 16.1728L30.4329 13.7028C30.1813 13.4598 29.7804 13.4667 29.5374 13.7183C29.3004 13.9637 29.3004 14.3528 29.5374 14.5983L33.0727 18.1336C33.1392 18.2142 33.2251 18.2767 33.3222 18.3154C33.347 18.3228 33.3722 18.329 33.3976 18.3337C33.441 18.3494 33.486 18.3603 33.5318 18.366C33.5382 18.366 33.5439 18.366 33.5502 18.366C33.5565 18.366 33.5622 18.366 33.5679 18.366C33.6161 18.3624 33.6638 18.3531 33.7098 18.3382C33.7358 18.335 33.7617 18.3302 33.7871 18.3236C33.8728 18.2931 33.9509 18.2443 34.0157 18.1805L37.5991 14.5983C37.8421 14.3467 37.8352 13.9458 37.5836 13.7028C37.3382 13.4658 36.9491 13.4658 36.7036 13.7028L34.1721 16.2323C33.7197 7.15429 26.2342 0.0222458 17.145 0.00886667C17.1291 0.00823333 17.1158 0 17.1 0C17.0842 0 17.0709 0.00823333 17.055 0.00886667C7.64608 0.0217708 0.0217708 7.64608 0.00886667 17.055C0.00886667 17.0709 0 17.0842 0 17.1C0 17.1158 0.00823333 17.1291 0.00886667 17.145C0.0246208 26.3217 7.28737 33.8468 16.4578 34.188H16.4812C16.8216 34.1879 17.101 33.9188 17.1139 33.5787Z" fill="white"/>
<path d="M25.6088 8.59119C25.3615 8.34395 24.9606 8.34395 24.7133 8.59119L17.9075 15.3964C17.3933 15.1671 16.806 15.1671 16.2919 15.3964L13.0695 12.174C12.8179 11.931 12.4169 11.938 12.1739 12.1896C11.9369 12.435 11.9369 12.8241 12.1739 13.0695L15.39 16.2856C14.9384 17.2308 15.3387 18.3632 16.284 18.8147C17.0096 19.1613 17.8749 19.0127 18.4433 18.444C19.0148 17.8773 19.162 17.0096 18.8094 16.2862L25.6088 9.48672C25.8561 9.23941 25.8561 8.83851 25.6088 8.59119ZM17.5479 17.5476C17.5479 17.5477 17.5479 17.5477 17.5478 17.5478C17.2973 17.7873 16.9027 17.7873 16.6522 17.5478C16.4048 17.3005 16.4048 16.8995 16.6521 16.6521C16.8994 16.4047 17.3004 16.4047 17.5478 16.6519C17.7952 16.8993 17.7952 17.3003 17.5479 17.5476Z" fill="white"/>
</svg>
