<svg width="39" height="38" viewBox="0 0 39 38" fill="none" xmlns="http://www.w3.org/2000/svg">
<path d="M27.4584 25.3731C29.8244 23.5986 31.5721 21.1247 32.4539 18.3018C33.3357 15.4789 33.307 12.45 32.3717 9.64433C31.4365 6.83864 29.6422 4.39833 27.243 2.66907C24.8438 0.939812 21.9613 0.00927734 19.0038 0.00927734C16.0464 0.00927734 13.1639 0.939812 10.7647 2.66907C8.36544 4.39833 6.57114 6.83864 5.63591 9.64433C4.70068 12.45 4.67193 15.4789 5.55375 18.3018C6.43557 21.1247 8.18325 23.5986 10.5492 25.3731L3.25251 32.6637C3.16321 32.7537 3.10405 32.8693 3.0832 32.9944C3.06235 33.1195 3.08083 33.248 3.13611 33.3621C3.19075 33.4752 3.27882 33.5688 3.38841 33.6301C3.49799 33.6915 3.62379 33.7177 3.74876 33.7052L8.58872 33.1722V37.3873C8.58933 37.5082 8.62572 37.6263 8.69331 37.7266C8.76091 37.8269 8.85668 37.9049 8.96857 37.9509C9.04128 37.9852 9.12101 38.002 9.20138 37.9999C9.282 38.0004 9.36193 37.9849 9.43658 37.9544C9.51122 37.9239 9.57911 37.879 9.63636 37.8222L19.0038 28.4486L28.3713 37.8222C28.4285 37.879 28.4964 37.9239 28.5711 37.9544C28.6457 37.9849 28.7257 38.0004 28.8063 37.9999C28.8866 38.002 28.9664 37.9852 29.0391 37.9509C29.151 37.9049 29.2467 37.8269 29.3143 37.7266C29.3819 37.6263 29.4183 37.5082 29.4189 37.3873V33.1722L34.2528 33.7052C34.3777 33.7177 34.5035 33.6915 34.6131 33.6301C34.7227 33.5688 34.8108 33.4752 34.8654 33.3621C34.9207 33.248 34.9392 33.1195 34.9183 32.9944C34.8975 32.8693 34.8383 32.7537 34.749 32.6637L27.4584 25.3731ZM6.13811 14.1064C6.13811 11.5618 6.89267 9.07438 8.30637 6.95862C9.72008 4.84286 11.7294 3.19383 14.0803 2.22006C16.4312 1.24628 19.0181 0.991495 21.5138 1.48792C24.0095 1.98435 26.302 3.20969 28.1013 5.00899C29.9006 6.8083 31.1259 9.10075 31.6223 11.5965C32.1188 14.0922 31.864 16.679 30.8902 19.0299C29.9164 21.3808 28.2674 23.3902 26.1516 24.8039C24.0359 26.2176 21.5484 26.9721 19.0038 26.9721C15.5916 26.9721 12.3192 25.6167 9.90639 23.2039C7.4936 20.7911 6.13811 17.5186 6.13811 14.1064ZM9.61185 32.0265C9.54702 31.9698 9.47094 31.9274 9.3886 31.9021C9.30626 31.8767 9.2195 31.869 9.13398 31.8795L5.35391 32.2961L11.5785 26.0715C13.3978 27.2126 15.4574 27.9152 17.5947 28.1239L9.81403 35.9108V32.486C9.81469 32.3995 9.79701 32.3138 9.76216 32.2346C9.72732 32.1554 9.67609 32.0845 9.61185 32.0265ZM28.8737 31.8734C28.7882 31.8629 28.7014 31.8706 28.6191 31.8959C28.5367 31.9213 28.4606 31.9637 28.3958 32.0204C28.3308 32.0791 28.2791 32.151 28.2442 32.2313C28.2093 32.3116 28.1921 32.3985 28.1936 32.486V35.9108L20.4129 28.1239C22.5503 27.9152 24.6099 27.2126 26.4292 26.0715L32.6537 32.2961L28.8737 31.8734Z" fill="white"/>
<path d="M30.6442 14.1062C30.6442 11.804 29.9615 9.55343 28.6825 7.63917C27.4034 5.72492 25.5854 4.23293 23.4584 3.3519C21.3314 2.47086 18.9909 2.24034 16.7329 2.68949C14.4749 3.13864 12.4007 4.24728 10.7728 5.87522C9.14487 7.50316 8.03622 9.57729 7.58708 11.8353C7.13793 14.0933 7.36845 16.4338 8.24948 18.5608C9.13052 20.6878 10.6225 22.5058 12.5368 23.7849C14.451 25.064 16.7016 25.7466 19.0038 25.7466C22.091 25.7466 25.0518 24.5203 27.2348 22.3372C29.4178 20.1542 30.6442 17.1935 30.6442 14.1062ZM9.0482 11.043H15.3279C15.4085 11.0434 15.4885 11.028 15.5631 10.9975C15.6377 10.967 15.7056 10.9221 15.7629 10.8653L18.2135 8.41469C18.2703 8.35744 18.3152 8.28955 18.3457 8.21491C18.3762 8.14026 18.3916 8.06033 18.3912 7.9797V6.14175C18.7161 6.14175 19.0278 6.27084 19.2576 6.50063C19.4874 6.73042 19.6165 7.04208 19.6165 7.36705V10.4303C19.6165 10.5928 19.681 10.7486 19.7959 10.8635C19.9108 10.9784 20.0666 11.043 20.2291 11.043H25.743V12.2683H20.8418V13.4936H25.743V14.7189H20.8418V15.9442H25.743V17.1695H20.8418V18.3948H25.743V19.0075C25.743 19.1699 25.6785 19.3258 25.5636 19.4407C25.4487 19.5556 25.2928 19.6201 25.1304 19.6201H17.9255L15.6036 18.4622C15.5182 18.4185 15.4238 18.3954 15.3279 18.3948H9.52607C8.90776 17.0497 8.58798 15.5867 8.58871 14.1062C8.59006 13.0681 8.7449 12.0358 9.0482 11.043ZM10.1816 19.6201H15.1809L17.5028 20.778C17.5882 20.8218 17.6826 20.8448 17.7785 20.8454H25.1304C25.6178 20.8454 26.0853 20.6518 26.43 20.3071C26.7747 19.9624 26.9683 19.4949 26.9683 19.0075V10.4303C26.9683 10.2678 26.9038 10.112 26.7889 9.99711C26.674 9.88221 26.5181 9.81766 26.3557 9.81766H20.8418V7.36705C20.8418 6.71711 20.5836 6.09379 20.124 5.63421C19.6644 5.17463 19.0411 4.91644 18.3912 4.91644H17.7785C17.616 4.91644 17.4602 4.98099 17.3453 5.09588C17.2304 5.21078 17.1659 5.36661 17.1659 5.52909V7.72852L15.0767 9.81766H9.52607C10.482 7.70194 12.1175 5.96628 14.1727 4.88634C16.2279 3.8064 18.585 3.44411 20.8696 3.85701C23.1543 4.26992 25.2355 5.43433 26.7827 7.16533C28.3298 8.89632 29.2543 11.0946 29.4092 13.4111C29.5641 15.7276 28.9406 18.0294 27.6377 19.951C26.3348 21.8726 24.4272 23.3038 22.2178 24.0172C20.0085 24.7307 17.6242 24.6855 15.4435 23.8888C13.2628 23.0922 11.4108 21.5897 10.1816 19.6201Z" fill="white"/>
<path d="M4.9128 6.1418C5.00927 6.1454 5.10523 6.12615 5.19286 6.08563C5.28048 6.0451 5.35729 5.98443 5.41701 5.90858C5.47674 5.83273 5.51769 5.74384 5.53654 5.64915C5.55538 5.55447 5.55158 5.45667 5.52545 5.36373L5.00469 3.60541L5.88691 2.96213C5.98086 2.89328 6.05323 2.79908 6.09555 2.69057C6.13786 2.58206 6.14838 2.46374 6.12585 2.34947C6.10687 2.23157 6.05384 2.12179 5.9733 2.03362C5.89275 1.94546 5.7882 1.88275 5.67248 1.85322L4.245 1.51014L3.63235 0.33997C3.57985 0.24271 3.50203 0.161462 3.40711 0.104835C3.3122 0.0482081 3.20374 0.0183105 3.09322 0.0183105C2.98269 0.0183105 2.87423 0.0482081 2.77932 0.104835C2.6844 0.161462 2.60658 0.24271 2.55408 0.33997L1.94143 1.51014L0.477185 1.85322C0.359213 1.88065 0.252018 1.94243 0.169144 2.03076C0.0862692 2.11908 0.0314348 2.22999 0.0115688 2.34947C-0.0109579 2.46374 -0.000445991 2.58206 0.0418723 2.69057C0.0841906 2.79908 0.156562 2.89328 0.250504 2.96213L1.14498 3.60541L0.624222 5.36373C0.589875 5.48607 0.594421 5.61607 0.63723 5.73571C0.680039 5.85536 0.758993 5.95873 0.863157 6.03152C0.966917 6.10539 1.09112 6.14509 1.2185 6.14509C1.34587 6.14509 1.47007 6.10539 1.57383 6.03152L3.07484 4.91649L4.55133 6.00089C4.65337 6.08577 4.78022 6.13522 4.9128 6.1418ZM3.93868 2.87023C3.8335 2.94098 3.75286 3.04261 3.70788 3.16112C3.66289 3.27963 3.65576 3.40917 3.68749 3.53189L3.81615 3.98526L3.4363 3.69118C3.33138 3.61451 3.20479 3.57319 3.07484 3.57319C2.94488 3.57319 2.81829 3.61451 2.71337 3.69118L2.30902 3.98526L2.46218 3.53189C2.49642 3.41165 2.49306 3.28381 2.45254 3.16553C2.41202 3.04726 2.33628 2.94421 2.2355 2.87023L2.03332 2.74157L2.46218 2.63129C2.54368 2.61043 2.62001 2.57302 2.68642 2.52137C2.75282 2.46972 2.80788 2.40495 2.84815 2.33109L3.07484 1.92674L3.29539 2.33109C3.33634 2.4056 3.39235 2.47077 3.45985 2.52245C3.52736 2.57413 3.60488 2.6112 3.68749 2.63129L4.12247 2.74157L3.93868 2.87023Z" fill="white"/>
<path d="M37.9961 2.34954C37.9762 2.23006 37.9214 2.11915 37.8385 2.03083C37.7556 1.9425 37.6484 1.88072 37.5305 1.85329L36.103 1.49183L35.4903 0.321659C35.4378 0.2244 35.36 0.143152 35.2651 0.0865247C35.1702 0.0298975 35.0617 0 34.9512 0C34.8407 0 34.7322 0.0298975 34.6373 0.0865247C34.5424 0.143152 34.4646 0.2244 34.4121 0.321659L33.7994 1.49183L32.3352 1.85329C32.2219 1.8815 32.1191 1.94146 32.0388 2.02611C31.9585 2.11077 31.904 2.2166 31.8818 2.33116C31.8593 2.44543 31.8698 2.56375 31.9121 2.67226C31.9544 2.78077 32.0268 2.87497 32.1207 2.94382L33.003 3.5871L32.4822 5.3638C32.4479 5.48614 32.4524 5.61614 32.4952 5.73578C32.538 5.85543 32.617 5.9588 32.7211 6.03159C32.8249 6.10546 32.9491 6.14516 33.0765 6.14516C33.2039 6.14516 33.3281 6.10546 33.4318 6.03159L34.9328 4.91656L36.4093 6.00096C36.5114 6.08584 36.6382 6.13529 36.7708 6.14187C36.8673 6.14547 36.9632 6.12622 37.0508 6.08569C37.1385 6.04517 37.2153 5.9845 37.275 5.90865C37.3347 5.8328 37.3757 5.74391 37.3945 5.64922C37.4134 5.55453 37.4096 5.45673 37.3834 5.3638L36.8872 3.60548L37.7694 2.96219C37.8611 2.89186 37.9311 2.79701 37.9712 2.6886C38.0113 2.58019 38.0199 2.46264 37.9961 2.34954ZM35.8089 2.8703C35.7015 2.93938 35.6184 3.04029 35.5712 3.15892C35.5239 3.27755 35.515 3.40797 35.5455 3.53196L35.6741 3.98533L35.2943 3.69125C35.1894 3.61458 35.0628 3.57326 34.9328 3.57326C34.8029 3.57326 34.6763 3.61458 34.5714 3.69125L34.167 3.98533L34.3202 3.53196C34.3544 3.41172 34.351 3.28388 34.3105 3.1656C34.27 3.04733 34.1943 2.94428 34.0935 2.8703L33.9158 2.74164L34.3202 2.63136C34.4017 2.6105 34.478 2.57309 34.5444 2.52144C34.6108 2.46979 34.6659 2.40502 34.7061 2.33116L34.9328 1.92681L35.1534 2.33116C35.1937 2.40502 35.2487 2.46979 35.3151 2.52144C35.3815 2.57309 35.4579 2.6105 35.5393 2.63136L35.9743 2.74164L35.8089 2.8703Z" fill="white"/>
</svg>
