<svg width="38" height="38" viewBox="0 0 38 38" fill="none" xmlns="http://www.w3.org/2000/svg">
<path d="M37.987 26.3889L35.8496 16.2864C35.823 16.1609 35.7542 16.0484 35.6545 15.9677C35.5549 15.887 35.4306 15.843 35.3023 15.843H2.69529C2.56707 15.843 2.44272 15.887 2.34309 15.9677C2.24346 16.0484 2.17461 16.1609 2.14807 16.2864L0.0122412 26.3889C-0.00510043 26.4704 -0.00400406 26.5547 0.01545 26.6357C0.0349041 26.7168 0.0722239 26.7924 0.124679 26.8572C0.177135 26.9219 0.2434 26.9741 0.318626 27.0099C0.393853 27.0458 0.476138 27.0643 0.559464 27.0643H2.13752V37.4407C2.13748 37.5142 2.15192 37.587 2.18002 37.6548C2.20811 37.7227 2.24931 37.7844 2.30126 37.8364C2.35321 37.8883 2.4149 37.9295 2.48278 37.9576C2.55067 37.9857 2.62342 38.0001 2.69689 38.0001H35.3023C35.3758 38.0001 35.4486 37.9857 35.5164 37.9576C35.5843 37.9295 35.646 37.8883 35.698 37.8364C35.7499 37.7844 35.7911 37.7227 35.8192 37.6548C35.8473 37.587 35.8617 37.5142 35.8617 37.4407V27.0643H37.4398C37.5231 27.0643 37.6054 27.0458 37.6806 27.0099C37.7558 26.9741 37.8221 26.9219 37.8745 26.8572C37.927 26.7924 37.9643 26.7168 37.9838 26.6357C38.0032 26.5547 38.0043 26.4704 37.987 26.3889ZM3.14886 16.9618H18.3087L16.4078 25.9455H1.24797L3.14886 16.9618ZM3.25466 27.0643H16.8611C16.9893 27.0643 17.1136 27.0202 17.2132 26.9395C17.3128 26.8587 17.3816 26.7461 17.408 26.6206L18.4394 21.7471V36.8814H3.25466V27.0643ZM34.743 36.8814H19.5582V21.7471L20.5897 26.6206C20.6161 26.7461 20.6848 26.8587 20.7844 26.9395C20.884 27.0202 21.0083 27.0643 21.1366 27.0643H34.743V36.8814ZM21.5898 25.9455L19.6889 16.9618H34.8488L36.7497 25.9455H21.5898Z" fill="white"/>
<path d="M9.77818 33.9631H5.51899C5.44553 33.9631 5.37279 33.9776 5.30493 34.0057C5.23706 34.0338 5.1754 34.075 5.12345 34.127C5.07151 34.1789 5.03031 34.2406 5.0022 34.3084C4.97409 34.3763 4.95962 34.449 4.95962 34.5225C4.95962 34.596 4.97409 34.6687 5.0022 34.7366C5.03031 34.8044 5.07151 34.8661 5.12345 34.918C5.1754 34.97 5.23706 35.0112 5.30493 35.0393C5.37279 35.0674 5.44553 35.0819 5.51899 35.0819H9.77818C9.85164 35.0819 9.92438 35.0674 9.99224 35.0393C10.0601 35.0112 10.1218 34.97 10.1737 34.918C10.2257 34.8661 10.2669 34.8044 10.295 34.7366C10.3231 34.6687 10.3375 34.596 10.3375 34.5225C10.3375 34.449 10.3231 34.3763 10.295 34.3084C10.2669 34.2406 10.2257 34.1789 10.1737 34.127C10.1218 34.075 10.0601 34.0338 9.99224 34.0057C9.92438 33.9776 9.85164 33.9631 9.77818 33.9631Z" fill="white"/>
<path d="M13.2591 33.9631H11.9965C11.8481 33.9631 11.7058 34.0221 11.6009 34.127C11.496 34.2319 11.4371 34.3741 11.4371 34.5225C11.4371 34.6709 11.496 34.8131 11.6009 34.918C11.7058 35.0229 11.8481 35.0819 11.9965 35.0819H13.2591C13.4074 35.0819 13.5497 35.0229 13.6546 34.918C13.7595 34.8131 13.8184 34.6709 13.8184 34.5225C13.8184 34.3741 13.7595 34.2319 13.6546 34.127C13.5497 34.0221 13.4074 33.9631 13.2591 33.9631Z" fill="white"/>
<path d="M33.1448 18.7297H28.8859C28.7375 18.7297 28.5953 18.7887 28.4904 18.8936C28.3855 18.9985 28.3265 19.1408 28.3265 19.2891C28.3265 19.4375 28.3855 19.5797 28.4904 19.6846C28.5953 19.7895 28.7375 19.8485 28.8859 19.8485H33.1448C33.2931 19.8485 33.4354 19.7895 33.5403 19.6846C33.6452 19.5797 33.7041 19.4375 33.7041 19.2891C33.7041 19.1408 33.6452 18.9985 33.5403 18.8936C33.4354 18.7887 33.2931 18.7297 33.1448 18.7297Z" fill="white"/>
<path d="M26.6676 18.7297H25.405C25.2567 18.7297 25.1144 18.7887 25.0095 18.8936C24.9046 18.9985 24.8457 19.1408 24.8457 19.2891C24.8457 19.4375 24.9046 19.5797 25.0095 19.6846C25.1144 19.7895 25.2567 19.8485 25.405 19.8485H26.6676C26.816 19.8485 26.9582 19.7895 27.0631 19.6846C27.168 19.5797 27.227 19.4375 27.227 19.2891C27.227 19.1408 27.168 18.9985 27.0631 18.8936C26.9582 18.7887 26.816 18.7297 26.6676 18.7297Z" fill="white"/>
<path d="M18.9988 13.9497C20.3783 13.9497 21.7268 13.5406 22.8738 12.7742C24.0209 12.0078 24.9148 10.9185 25.4427 9.64401C25.9707 8.36952 26.1088 6.96712 25.8397 5.61413C25.5705 4.26114 24.9062 3.01834 23.9308 2.04289C22.9553 1.06744 21.7125 0.403149 20.3596 0.134023C19.0066 -0.135103 17.6042 0.00302206 16.3297 0.530932C15.0552 1.05884 13.9659 1.95283 13.1994 3.09983C12.433 4.24684 12.024 5.59536 12.024 6.97485C12.0261 8.82405 12.7616 10.5969 14.0692 11.9045C15.3768 13.2121 17.1496 13.9476 18.9988 13.9497ZM18.9988 1.11874C20.1571 1.11874 21.2893 1.4622 22.2523 2.10567C23.2153 2.74915 23.9659 3.66375 24.4092 4.73382C24.8524 5.80388 24.9684 6.98135 24.7424 8.11732C24.5165 9.2533 23.9587 10.2968 23.1397 11.1158C22.3207 11.9347 21.2773 12.4925 20.1413 12.7184C19.0053 12.9444 17.8279 12.8284 16.7578 12.3852C15.6877 11.942 14.7731 11.1914 14.1296 10.2283C13.4862 9.2653 13.1427 8.13308 13.1427 6.97485C13.1444 5.42224 13.7619 3.93369 14.8598 2.83583C15.9577 1.73796 17.4462 1.12043 18.9988 1.11874Z" fill="white"/>
<path d="M17.6244 9.18698C17.6763 9.23897 17.738 9.28021 17.8058 9.30835C17.8737 9.33649 17.9464 9.35097 18.0199 9.35097C18.0934 9.35097 18.1662 9.33649 18.234 9.30835C18.3019 9.28021 18.3636 9.23897 18.4155 9.18698L22.1374 5.46287C22.2422 5.358 22.3011 5.21577 22.3011 5.06747C22.3011 4.91917 22.2422 4.77694 22.1374 4.67208C22.0325 4.56721 21.8903 4.5083 21.742 4.5083C21.5937 4.5083 21.4514 4.56721 21.3466 4.67208L18.0185 7.99984L16.6511 6.63275C16.5991 6.58082 16.5375 6.53963 16.4697 6.51153C16.4018 6.48343 16.3291 6.46897 16.2557 6.46897C16.1822 6.46897 16.1095 6.48343 16.0417 6.51153C15.9738 6.53963 15.9122 6.58082 15.8603 6.63275C15.8084 6.68467 15.7672 6.74631 15.7391 6.81415C15.711 6.882 15.6965 6.95471 15.6965 7.02814C15.6965 7.10157 15.711 7.17428 15.7391 7.24213C15.7672 7.30997 15.8084 7.37161 15.8603 7.42353L17.6244 9.18698Z" fill="white"/>
</svg>
