<svg width="6" height="7" viewBox="0 0 6 7" fill="none" xmlns="http://www.w3.org/2000/svg">
<path d="M3 0C1.55249 0 0.375 1.17763 0.375 2.625C0.375 4.56157 2.79692 6.86328 2.90003 6.96041C2.92822 6.98675 2.96411 7 3 7C3.03589 7 3.07178 6.98675 3.09998 6.96041C3.20308 6.86328 5.625 4.56157 5.625 2.625C5.625 1.17763 4.44751 0 3 0ZM3 4.08334C2.19592 4.08334 1.54166 3.42908 1.54166 2.625C1.54166 1.82092 2.19593 1.16666 3 1.16666C3.80407 1.16666 4.45834 1.82093 4.45834 2.625C4.45834 3.42907 3.80408 4.08334 3 4.08334Z" fill="#FFBE00"/>
</svg>
