<svg width="19" height="19" viewBox="0 0 19 19" fill="none" xmlns="http://www.w3.org/2000/svg">
<path d="M18.5459 3.60512C18.1902 3.20271 17.6832 2.98107 17.1183 2.98107H3.46248L3.32504 1.96056C3.1769 0.861198 2.40405 0 1.56547 0H0.562077C0.251617 0 0 0.249184 0 0.556641C0 0.864098 0.251617 1.11328 0.562077 1.11328H1.56547C1.7458 1.11328 2.12769 1.4909 2.21069 2.1077L3.81963 14.0584C3.89048 14.5851 4.16376 15.0783 4.58912 15.4471C4.90456 15.7206 5.27737 15.9025 5.6679 15.9786C5.50879 16.2684 5.41833 16.6004 5.41833 16.9528C5.41833 18.0817 6.34576 19 7.48557 19C8.62539 19 9.55282 18.0817 9.55282 16.9528C9.55282 16.6164 9.46997 16.2991 9.32418 16.0189H12.2695C12.1237 16.2991 12.0409 16.6164 12.0409 16.9528C12.0409 18.0817 12.9683 19 14.1081 19C15.2479 19 16.1754 18.0817 16.1754 16.9528C16.1754 16.6164 16.0925 16.2991 15.9467 16.0189H17.4194C17.7297 16.0189 17.9815 15.7696 17.9815 15.4623C17.9815 15.1548 17.7297 14.9056 17.4194 14.9056H6.08082C5.53163 14.9056 5.00643 14.4502 4.93383 13.9111L4.8163 13.0377H9.19098C9.19113 13.0377 9.19127 13.0379 9.19142 13.0379C9.19156 13.0379 9.19171 13.0377 9.192 13.0377H12.8031C12.8032 13.0377 12.8033 13.0379 12.8036 13.0379C12.8038 13.0379 12.8038 13.0377 12.8039 13.0377H15.9142C16.4508 13.0377 16.9806 12.8346 17.4059 12.466C17.8313 12.0972 18.1046 11.6039 18.1754 11.0771L18.9817 5.08891C19.0563 4.53445 18.9016 4.00752 18.5459 3.60512ZM8.42866 16.9528C8.42866 17.4678 8.00564 17.8867 7.48557 17.8867C6.96565 17.8867 6.54249 17.4678 6.54249 16.9528C6.54249 16.4379 6.96565 16.0189 7.48557 16.0189C8.00564 16.0189 8.42866 16.4379 8.42866 16.9528ZM15.0512 16.9528C15.0512 17.4678 14.6282 17.8867 14.1081 17.8867C13.5881 17.8867 13.165 17.4678 13.165 16.9528C13.165 16.4379 13.5881 16.0189 14.1081 16.0189C14.6282 16.0189 15.0512 16.4379 15.0512 16.9528ZM17.7 4.33846C17.8392 4.49589 17.8986 4.70999 17.8673 4.94164L17.5293 7.45275H13.7049L13.9309 4.09435H17.1183C17.3544 4.09435 17.5609 4.18104 17.7 4.33846ZM9.71778 11.9244L9.49163 8.56603H12.5033L12.2771 11.9244H9.71778ZM9.41669 7.45275L9.19069 4.09435H12.8042L12.5782 7.45275H9.41669ZM8.06404 4.09435L8.29005 7.45275H4.06437L3.61222 4.09435H8.06404ZM4.21426 8.56603H8.36499L8.59114 11.9244H4.66641L4.21426 8.56603ZM15.9142 11.9244H13.4038L13.6299 8.56603H17.3794L17.0612 10.93C16.9886 11.4691 16.4633 11.9244 15.9142 11.9244Z" fill="#3C3C3B"/>
</svg>
