<svg width="19" height="20" viewBox="0 0 19 20" fill="none" xmlns="http://www.w3.org/2000/svg">
<path d="M17.815 10.3349C17.7143 9.89581 17.4909 9.52758 17.1457 9.23006C16.8002 8.93255 16.4025 8.75766 15.9523 8.70555C14.5244 8.55677 12.3709 8.48242 9.49156 8.48242C6.61226 8.48242 4.4626 8.55681 3.04236 8.70555C2.5846 8.75766 2.18495 8.93255 1.84335 9.23006C1.50184 9.5277 1.27677 9.89597 1.16807 10.3349C0.96633 11.1981 0.865417 12.5002 0.865417 14.2412C0.865417 16.012 0.96633 17.3141 1.16807 18.1475C1.26911 18.5863 1.49226 18.9549 1.8376 19.2523C2.18295 19.5499 2.58069 19.721 3.03074 19.7657C4.45885 19.9219 6.61251 20.0001 9.49164 20.0001C12.3706 20.0001 14.5246 19.9219 15.9522 19.7657C16.4025 19.721 16.7982 19.5499 17.1398 19.2523C17.4813 18.9549 17.7064 18.5863 17.815 18.1475C18.0167 17.2843 18.1177 15.9823 18.1177 14.2412C18.1177 12.4705 18.0167 11.1683 17.815 10.3349ZM5.78996 11.4624H4.54439V17.8126H3.38037V11.4624H2.158V10.4133H5.79V11.4624H5.78996ZM8.93293 17.8126H7.89689V17.2098C7.47783 17.6638 7.08188 17.8907 6.70938 17.8907C6.35246 17.8907 6.12735 17.7529 6.03435 17.4777C5.97233 17.2992 5.94114 17.0274 5.94114 16.6629V12.2992H6.97718V16.3617C6.97718 16.5996 6.98109 16.7299 6.98892 16.7523C7.0122 16.9085 7.09363 16.9866 7.2334 16.9866C7.44289 16.9866 7.6642 16.8304 7.89693 16.5179V12.2992H8.93297V17.8126H8.93293ZM12.8909 16.1607C12.8909 16.7039 12.856 17.0761 12.7865 17.2771C12.6542 17.686 12.3789 17.8907 11.9599 17.8907C11.5874 17.8907 11.2266 17.686 10.8771 17.2771V17.8127H9.84127V10.4133H10.8771V12.8351C11.211 12.4336 11.5717 12.2326 11.9599 12.2326C12.3789 12.2326 12.6542 12.441 12.7865 12.8576C12.856 13.051 12.8909 13.4193 12.8909 13.9625V16.1607ZM16.8255 15.2457H14.7419V16.2167C14.7419 16.7301 14.9202 16.9866 15.2773 16.9866C15.5333 16.9866 15.6886 16.8529 15.7429 16.5848C15.7582 16.5104 15.7662 16.2836 15.7662 15.9041H16.8255V16.0492C16.8255 16.4138 16.8175 16.6295 16.8022 16.6966C16.779 16.8973 16.6978 17.0982 16.5577 17.2991C16.2784 17.6935 15.8589 17.8907 15.3003 17.8907C14.765 17.8907 14.3459 17.7009 14.0431 17.3216C13.8182 17.0463 13.7057 16.6147 13.7057 16.0269V14.096C13.7057 13.5083 13.8142 13.0767 14.0314 12.8014C14.3342 12.422 14.7494 12.2323 15.2773 12.2323C15.7973 12.2323 16.2089 12.422 16.5112 12.8014C16.721 13.0767 16.8255 13.5083 16.8255 14.096V15.2457Z" fill="#FFBE00"/>
<path d="M11.4006 13.1367C11.2221 13.1367 11.0476 13.2188 10.8768 13.3823V16.7415C11.0476 16.9051 11.2221 16.987 11.4006 16.987C11.7031 16.987 11.8548 16.7379 11.8548 16.2392V13.8845C11.8548 13.3859 11.7035 13.1367 11.4006 13.1367Z" fill="#FFBE00"/>
<path d="M15.2656 13.1367C14.9164 13.1367 14.7418 13.3898 14.7418 13.8955V14.4089H15.7893V13.8955C15.7893 13.3896 15.6147 13.1367 15.2656 13.1367Z" fill="#FFBE00"/>
<path d="M5.1151 4.45305V7.47766H6.27912V4.45305L7.68745 0H6.50011L5.70871 2.93525L4.88212 0H3.64825C3.86557 0.625054 4.11779 1.32067 4.40496 2.08707C4.76975 3.11378 5.00631 3.90258 5.1151 4.45305Z" fill="#FFBE00"/>
<path d="M9.24732 7.55565C9.78283 7.55565 10.194 7.3659 10.4812 6.98645C10.6986 6.71114 10.8071 6.27212 10.8071 5.66954V3.71635C10.8071 3.1212 10.6983 2.68582 10.4812 2.4105C10.194 2.03105 9.78283 1.84131 9.24732 1.84131C8.72722 1.84131 8.31974 2.03105 8.02495 2.4105C7.80776 2.68582 7.6991 3.1212 7.6991 3.71635V5.6695C7.6991 6.26465 7.80763 6.70371 8.02495 6.98642C8.31986 7.3659 8.72718 7.55565 9.24732 7.55565ZM8.74667 3.51543C8.74667 3.00202 8.91356 2.74531 9.24732 2.74531C9.58109 2.74531 9.74781 3.00202 9.74781 3.51543V5.85909C9.74781 6.38009 9.58109 6.64031 9.24732 6.64031C8.91356 6.64031 8.74667 6.37993 8.74667 5.85909V3.51543Z" fill="#FFBE00"/>
<path d="M12.4483 7.55554C12.8365 7.55554 13.2363 7.32487 13.6475 6.86345V7.47728H14.7068V1.9082H13.6475V6.16033C13.4146 6.48032 13.1936 6.64016 12.9838 6.64016C12.844 6.64016 12.7625 6.55835 12.7393 6.39468C12.7315 6.37978 12.7276 6.24946 12.7276 6.00401V1.9082H11.6683V6.30555C11.6683 6.68492 11.6995 6.96383 11.7615 7.14251C11.8625 7.41783 12.0913 7.55554 12.4483 7.55554Z" fill="#FFBE00"/>
</svg>
