<svg width="36" height="36" viewBox="0 0 36 36" fill="none" xmlns="http://www.w3.org/2000/svg">
<path d="M1.33165 18.3193C0.953824 18.4594 0.759076 18.8812 0.896711 19.2631L1.35657 20.5372L4.85797 17.0112L1.33165 18.3193Z" fill="#3C3C3B"/>
<path d="M4.64551 29.6445L6.7543 35.4843C6.8202 35.6686 6.95783 35.8191 7.13356 35.9001C7.23166 35.9458 7.3371 35.9695 7.44254 35.9695C7.52896 35.9695 7.61387 35.9548 7.69591 35.9238L10.0229 35.0596L4.64551 29.6445Z" fill="#3C3C3B"/>
<path d="M35.9551 24.6593L33.5418 17.9775L27.7499 23.8099L30.6202 22.7451C30.9966 22.6006 31.4212 22.7982 31.5604 23.1817C31.701 23.5636 31.5062 23.9883 31.1269 24.1284L27.4804 25.4822C27.397 25.5131 27.312 25.5279 27.2271 25.5279C26.9298 25.5279 26.6486 25.3435 26.5403 25.0456C26.5388 25.0412 26.5403 25.0368 26.5388 25.0324L20.4014 31.2128L35.5202 25.6031C35.8995 25.463 36.0942 25.0412 35.9551 24.6593Z" fill="#3C3C3B"/>
<path d="M35.7851 12.5902L24.0696 0.792819C23.784 0.505258 23.3198 0.505258 23.0342 0.792819L1.06769 22.9128C0.782124 23.2004 0.782124 23.6679 1.06769 23.9555L12.7832 35.7528C12.9252 35.8974 13.1127 35.9696 13.3002 35.9696C13.4876 35.9696 13.675 35.8974 13.8186 35.7543L35.7851 13.6343C36.0707 13.3452 36.0707 12.8792 35.7851 12.5902ZM9.42527 21.0076L6.49637 23.9569C6.35284 24.0999 6.16543 24.1722 5.97796 24.1722C5.79049 24.1722 5.60309 24.1 5.45955 23.9569C5.17399 23.6693 5.17399 23.2019 5.45955 22.9143L8.38845 19.9649C8.67401 19.6774 9.13826 19.6774 9.42382 19.9649C9.70939 20.2526 9.71083 20.7185 9.42527 21.0076ZM22.0706 21.944C21.5522 22.466 20.8479 22.7167 20.0643 22.7167C18.7698 22.7167 17.257 22.034 15.9917 20.7584C15.0662 19.8263 14.416 18.7115 14.1627 17.6203C13.8815 16.4037 14.1129 15.3449 14.8143 14.6371C15.5158 13.9292 16.5673 13.6962 17.7769 13.9808C18.8606 14.236 19.9677 14.8892 20.8932 15.8227C22.9273 17.8695 23.4457 20.5593 22.0706 21.944ZM31.3918 13.6343L28.4629 16.5836C28.3194 16.7266 28.132 16.7989 27.9445 16.7989C27.757 16.7989 27.5696 16.7267 27.4261 16.5836C27.1405 16.2961 27.1405 15.8286 27.4261 15.541L30.355 12.5916C30.6405 12.3041 31.1048 12.3041 31.3903 12.5916C31.6759 12.8792 31.6774 13.3452 31.3918 13.6343Z" fill="#3C3C3B"/>
</svg>
