<svg width="19" height="19" viewBox="0 0 19 19" fill="none" xmlns="http://www.w3.org/2000/svg">
<path d="M17.5539 14.114L14.1131 11.8193C13.6764 11.5305 13.0911 11.6255 12.7683 12.0377L11.766 13.3264C11.6372 13.4963 11.403 13.5455 11.2167 13.442L11.026 13.3369C10.394 12.9924 9.60759 12.5635 8.02314 10.9785C6.43869 9.39351 6.00894 8.60651 5.66444 7.97564L5.5599 7.78499C5.45496 7.59868 5.50329 7.36353 5.6732 7.2337L6.96103 6.23171C7.37308 5.90886 7.46826 5.3237 7.17974 4.88692L4.88508 1.44605C4.58938 1.00126 3.99613 0.86774 3.53836 1.14292L2.09951 2.00724C1.64742 2.27302 1.31574 2.70347 1.17401 3.20838C0.65589 5.09623 1.04567 8.35437 5.8452 13.1545C9.66313 16.9721 12.5054 17.9988 14.459 17.9988C14.9086 18.0007 15.3564 17.9422 15.7905 17.8248C16.2955 17.6833 16.726 17.3516 16.9916 16.8993L17.8568 15.4613C18.1324 15.0035 17.9989 14.4099 17.5539 14.114ZM17.3686 15.1707L16.5054 16.6095C16.3147 16.9359 16.0051 17.1759 15.6414 17.2792C13.8986 17.7577 10.8538 17.3614 6.24604 12.7536C1.63829 8.14588 1.242 5.10134 1.72049 3.35827C1.82394 2.99415 2.06422 2.68411 2.39103 2.49309L3.82987 1.6299C4.0285 1.51039 4.28598 1.56832 4.41429 1.76134L5.66079 3.63275L6.707 5.2019C6.83228 5.39136 6.79112 5.6453 6.61238 5.78549L5.32426 6.78748C4.93225 7.08723 4.82031 7.62959 5.06166 8.06003L5.16394 8.24588C5.526 8.90991 5.97614 9.73598 7.61951 11.3791C9.26289 13.0222 10.0887 13.4723 10.7524 13.8344L10.9385 13.9369C11.369 14.1782 11.9113 14.0663 12.2111 13.6743L13.2131 12.3862C13.3533 12.2076 13.6071 12.1664 13.7967 12.2916L17.2372 14.5862C17.4304 14.7144 17.4883 14.9721 17.3686 15.1707Z" fill="#3C3C3B" stroke="#3C3C3B" stroke-width="0.3"/>
</svg>
