<svg width="20" height="20" viewBox="0 0 20 20" fill="none" xmlns="http://www.w3.org/2000/svg">
<path d="M14.2449 0H5.28715C2.37177 0 0 2.37177 0 5.28715V14.2451C0 17.1603 2.37177 19.5321 5.28715 19.5321H14.2451C17.1603 19.5321 19.5321 17.1603 19.5321 14.2451V5.28715C19.5321 2.37177 17.1603 0 14.2449 0V0ZM9.76603 15.1067C6.82114 15.1067 4.42538 12.7109 4.42538 9.76603C4.42538 6.82114 6.82114 4.42538 9.76603 4.42538C12.7109 4.42538 15.1067 6.82114 15.1067 9.76603C15.1067 12.7109 12.7109 15.1067 9.76603 15.1067ZM15.2344 5.68488C14.3641 5.68488 13.6563 4.97705 13.6563 4.10678C13.6563 3.23652 14.3641 2.52853 15.2344 2.52853C16.1047 2.52853 16.8126 3.23652 16.8126 4.10678C16.8126 4.97705 16.1047 5.68488 15.2344 5.68488Z" fill="#FFBE00"/>
<path d="M9.76615 5.57031C7.4528 5.57031 5.57056 7.45241 5.57056 9.76591C5.57056 12.0793 7.4528 13.9615 9.76615 13.9615C12.0797 13.9615 13.9618 12.0793 13.9618 9.76591C13.9618 7.45241 12.0797 5.57031 9.76615 5.57031Z" fill="#FFBE00"/>
<path d="M15.2344 3.67432C14.9956 3.67432 14.8013 3.86864 14.8013 4.10736C14.8013 4.34609 14.9956 4.54041 15.2344 4.54041C15.4733 4.54041 15.6676 4.34624 15.6676 4.10736C15.6676 3.86849 15.4733 3.67432 15.2344 3.67432Z" fill="#FFBE00"/>
</svg>
