<svg width="21" height="20" viewBox="0 0 21 20" fill="none" xmlns="http://www.w3.org/2000/svg">
<rect x="0.19873" width="20" height="20" rx="4.1" fill="#FFBE00"/>
<path d="M18.2318 13.6582C18.1878 13.5846 17.9158 12.9937 16.6071 11.779C15.2371 10.5071 15.4211 10.7136 17.0713 8.51438C18.0764 7.17499 18.4782 6.35704 18.3524 6.00737C18.2328 5.67405 17.4936 5.76198 17.4936 5.76198L15.0357 5.7763C15.0357 5.7763 14.8537 5.75176 14.7177 5.83253C14.5858 5.91228 14.5009 6.09632 14.5009 6.09632C14.5009 6.09632 14.1114 7.13307 13.592 8.0144C12.4969 9.87421 12.0583 9.97237 11.8794 9.85683C11.4633 9.58793 11.5676 8.7751 11.5676 8.19844C11.5676 6.39589 11.8405 5.6444 11.0349 5.45014C10.767 5.38573 10.5707 5.34278 9.88667 5.33563C9.00942 5.32643 8.26612 5.33869 7.84589 5.5442C7.56575 5.68121 7.35001 5.98692 7.48191 6.0043C7.64448 6.02577 8.01255 6.10348 8.20784 6.36931C8.46038 6.71182 8.45118 7.48274 8.45118 7.48274C8.45118 7.48274 8.59636 9.60429 8.11275 9.86808C7.78046 10.049 7.32548 9.67995 6.34905 7.99191C5.84908 7.12795 5.47078 6.17198 5.47078 6.17198C5.47078 6.17198 5.39819 5.99408 5.26834 5.89899C5.11088 5.78345 4.89004 5.74665 4.89004 5.74665L2.55275 5.76096C2.55275 5.76096 2.20206 5.77118 2.07323 5.92353C1.95872 6.05951 2.06403 6.33966 2.06403 6.33966C2.06403 6.33966 3.89419 10.6206 5.96564 12.7789C7.86634 14.7574 10.0237 14.6275 10.0237 14.6275H11.0011C11.0011 14.6275 11.2966 14.5948 11.4469 14.4322C11.586 14.2829 11.5808 14.0028 11.5808 14.0028C11.5808 14.0028 11.5614 12.691 12.1708 12.4978C12.771 12.3076 13.5419 13.7656 14.3588 14.3269C14.9764 14.7512 15.4456 14.6582 15.4456 14.6582L17.6306 14.6275C17.6306 14.6275 18.7737 14.557 18.2318 13.6582Z" fill="white"/>
</svg>
