<svg width="30" height="22" viewBox="0 0 30 22" fill="none" xmlns="http://www.w3.org/2000/svg">
<path d="M29.8297 5.58624V4.0022C29.8297 2.18772 28.369 0.716797 26.5671 0.716797H3.26262C1.46072 0.716797 0 2.18772 0 4.0022V5.58624C0 5.74822 0.130447 5.87958 0.291305 5.87958H29.5384C29.6992 5.87958 29.8297 5.74822 29.8297 5.58624Z" fill="#3C3C3B"/>
<path d="M0 8.05067V18.0829C0 19.8974 1.46072 21.3683 3.26262 21.3683H26.5671C28.369 21.3683 29.8297 19.8974 29.8297 18.0829V8.05067C29.8297 7.88868 29.6992 7.75732 29.5384 7.75732H0.291305C0.130447 7.75732 0 7.88868 0 8.05067ZM7.45742 15.7362C7.45742 16.2546 7.04004 16.6749 6.52524 16.6749H5.59307C5.07827 16.6749 4.66089 16.2546 4.66089 15.7362V14.7975C4.66089 14.2791 5.07827 13.8588 5.59307 13.8588H6.52524C7.04004 13.8588 7.45742 14.2791 7.45742 14.7975V15.7362Z" fill="#3C3C3B"/>
</svg>
