<svg width="21" height="20" viewBox="0 0 21 20" fill="none" xmlns="http://www.w3.org/2000/svg">
<rect x="0.784363" width="20" height="20" rx="4.1" fill="#FFBE00"/>
<path d="M13.8165 2.38247L11.8976 2.37939C9.7419 2.37939 8.34876 3.80871 8.34876 6.02095V7.69995H6.41946C6.25274 7.69995 6.11774 7.83511 6.11774 8.00182V10.4345C6.11774 10.6012 6.25289 10.7362 6.41946 10.7362H8.34876V16.8747C8.34876 17.0414 8.48376 17.1764 8.65048 17.1764H11.1677C11.3344 17.1764 11.4694 17.0412 11.4694 16.8747V10.7362H13.7252C13.8919 10.7362 14.0269 10.6012 14.0269 10.4345L14.0278 8.00182C14.0278 7.92178 13.996 7.84511 13.9395 7.78847C13.883 7.73182 13.806 7.69995 13.726 7.69995H11.4694V6.27664C11.4694 5.59254 11.6324 5.24526 12.5236 5.24526L13.8162 5.2448C13.9827 5.2448 14.1177 5.10964 14.1177 4.94308V2.68419C14.1177 2.51778 13.9829 2.38278 13.8165 2.38247Z" fill="white"/>
</svg>
