<svg width="11" height="11" viewBox="0 0 11 11" fill="none" xmlns="http://www.w3.org/2000/svg">
<path d="M10.9712 4.15628C10.8988 3.92385 10.7012 3.75929 10.4684 3.73731L7.29306 3.43649L6.03813 0.370622C5.94548 0.145376 5.73466 0 5.50001 0C5.26535 0 5.05445 0.145376 4.96239 0.370622L3.70746 3.43649L0.531585 3.73731C0.298778 3.75973 0.101639 3.92429 0.0287928 4.15628C-0.0436342 4.3887 0.0232538 4.64364 0.199328 4.80478L2.59966 7.0011L1.89192 10.2539C1.84014 10.493 1.9291 10.7403 2.11927 10.8838C2.22149 10.9613 2.34159 11 2.4621 11C2.56567 11 2.66931 10.9713 2.76188 10.9135L5.50001 9.20504L8.23763 10.9135C8.43846 11.0387 8.69099 11.0272 8.88074 10.8838C9.07092 10.7403 9.15987 10.493 9.10809 10.2539L8.40036 7.0011L10.8007 4.80478C10.9767 4.64364 11.0436 4.38923 10.9712 4.15628Z" fill="#B1B2B3"/>
</svg>
