<svg width="17" height="21" viewBox="0 0 17 21" fill="none" xmlns="http://www.w3.org/2000/svg">
<path d="M15.2734 11.951C15.5221 11.78 15.8635 11.8027 16.0875 12.0191L16.0875 12.0191C16.344 12.2668 16.3512 12.6757 16.1034 12.9323L16.1004 12.9354L16.1003 12.9354L8.97534 20.0604L8.97482 20.0609L8.97477 20.0609L8.9744 20.0613C8.72196 20.3131 8.31321 20.3127 8.06128 20.0604L15.2734 11.951ZM15.2734 11.951L15.2563 11.9514L15.1855 12.0221L9.16338 18.045V1.39585C9.16338 1.03916 8.87421 0.75 8.51753 0.75C8.16085 0.75 7.87169 1.03916 7.87169 1.39585V18.045L1.84957 12.0221L1.84959 12.0221L1.84647 12.0191C1.5899 11.7712 1.18103 11.7784 0.933252 12.0349L0.93322 12.035C0.691542 12.2852 0.691513 12.682 0.933241 12.9323L0.933214 12.9323L0.936282 12.9354L8.06105 20.0601L15.2734 11.951Z" fill="#FFC107" stroke="#3C3C3B" stroke-width="0.5"/>
<path d="M8.05934 20.061L8.05952 20.0612L8.51637 19.9998L8.51646 20.2498C8.51658 20.2498 8.51669 20.2498 8.51681 20.2498C8.68761 20.2497 8.85146 20.1819 8.9724 20.0612L8.97258 20.061L16.0976 12.936L16.0976 12.936L16.1006 12.9329C16.3424 12.6826 16.3424 12.2858 16.1006 12.0355L16.1006 12.0355C15.8528 11.779 15.444 11.7718 15.1874 12.0197L15.1874 12.0197L15.1843 12.0227L8.51632 18.6907L1.84757 12.0227L1.8476 12.0227L1.84449 12.0197C1.59422 11.778 1.19746 11.778 0.947181 12.0197L0.947147 12.0197C0.69065 12.2675 0.683458 12.6763 0.931314 12.9329L0.931287 12.9329L0.934343 12.936L8.05934 20.061Z" fill="#3C3C3B" stroke="#3C3C3B" stroke-width="0.5"/>
<path d="M7.87012 1.3958V1.39585V19.6042C7.87012 19.9608 8.15928 20.25 8.51596 20.25C8.87263 20.25 9.16181 19.9609 9.16181 19.6042V1.39585C9.16181 1.03916 8.87264 0.75 8.51596 0.75C8.15924 0.75 7.87018 1.03919 7.87012 1.3958Z" fill="#3C3C3B" stroke="#3C3C3B" stroke-width="0.5"/>
</svg>
