<svg width="136" height="89" viewBox="0 0 136 89" fill="none" xmlns="http://www.w3.org/2000/svg">
<path fill-rule="evenodd" clip-rule="evenodd" d="M119.415 58.1416V61.7904H125.501V73.7152H129.698V61.7904H135.784V58.1416H119.415ZM100.872 58.1416V73.7982H104.869L113.162 63.8469V73.7982H117.292V58.1416H113.245L104.952 68.0928V58.1416H100.872ZM85.5307 58.1416L83.4741 69.1543C83.4489 69.408 83.3255 69.6419 83.1304 69.8061C82.9352 69.9703 82.6836 70.0518 82.4293 70.0333H80.4059V73.7982H82.562C83.1604 73.8645 83.7661 73.8098 84.3431 73.6375C84.9201 73.4652 85.4565 73.1787 85.9206 72.7951C86.3847 72.4114 86.767 71.9384 87.0448 71.4041C87.3225 70.8699 87.4901 70.2853 87.5376 69.685L89.0137 61.8733H93.9893V73.7982H98.1522V58.1416H85.5307ZM79.3941 65.9864C79.3798 64.8577 79.1384 63.7434 78.6842 62.7099C78.23 61.6765 77.5724 60.745 76.7506 59.9712C75.9287 59.1973 74.9595 58.5968 73.9006 58.2056C72.8417 57.8143 71.7149 57.6402 70.5873 57.6938C69.4113 57.5262 68.2131 57.6132 67.0737 57.949C65.9342 58.2847 64.8802 58.8613 63.983 59.6398C63.0858 60.4182 62.3662 61.3803 61.8731 62.461C61.38 63.5417 61.1248 64.7157 61.1248 65.9035C61.1248 67.0914 61.38 68.2654 61.8731 69.3461C62.3662 70.4267 63.0858 71.3888 63.983 72.1673C64.8802 72.9457 65.9342 73.5223 67.0737 73.8581C68.2131 74.1938 69.4113 74.2808 70.5873 74.1133C71.708 74.1667 72.8281 73.9952 73.8816 73.6091C74.935 73.2229 75.9005 72.6298 76.7212 71.8648C77.542 71.0997 78.2012 70.1781 78.6603 69.1543C79.1193 68.1305 79.3689 67.0252 79.3941 65.9035V65.9864ZM65.9434 65.9864C65.95 65.0734 66.2265 64.1827 66.7382 63.4265C67.2499 62.6703 67.9739 62.0823 68.819 61.7367C69.6641 61.391 70.5926 61.3032 71.4876 61.4841C72.3825 61.665 73.204 62.1067 73.8484 62.7535C74.4929 63.4003 74.9317 64.2233 75.1094 65.1189C75.2872 66.0145 75.196 66.9427 74.8473 67.7865C74.4987 68.6304 73.9081 69.3523 73.1501 69.8613C72.3921 70.3703 71.5004 70.6436 70.5873 70.6469C69.9624 70.6712 69.3394 70.5644 68.7583 70.3332C68.1772 70.1021 67.651 69.7518 67.2135 69.305C66.7761 68.8581 66.437 68.3246 66.2183 67.7388C65.9995 67.1529 65.9059 66.5278 65.9434 65.9035V65.9864ZM43.2546 58.1416V73.7982H47.4176V67.5123H55.08V73.7152H59.2761V58.1416H55.08V63.7806H47.4176V58.1416H43.2546ZM40.7337 65.9864C40.7193 64.8577 40.4779 63.7434 40.0237 62.7099C39.5695 61.6765 38.9119 60.745 38.0901 59.9712C37.2682 59.1973 36.299 58.5968 35.2401 58.2056C34.1812 57.8143 33.0544 57.6402 31.9268 57.6938C30.7508 57.5262 29.5526 57.6132 28.4132 57.949C27.2737 58.2847 26.2197 58.8613 25.3225 59.6398C24.4253 60.4182 23.7057 61.3803 23.2126 62.461C22.7195 63.5417 22.4643 64.7157 22.4643 65.9035C22.4643 67.0914 22.7195 68.2654 23.2126 69.3461C23.7057 70.4267 24.4253 71.3888 25.3225 72.1673C26.2197 72.9457 27.2737 73.5223 28.4132 73.8581C29.5526 74.1938 30.7508 74.2808 31.9268 74.1133C33.0476 74.1667 34.1676 73.9952 35.2211 73.6091C36.2745 73.2229 37.2401 72.6298 38.0608 71.8648C38.8815 71.0997 39.5408 70.1781 39.9998 69.1543C40.4589 68.1305 40.7084 67.0252 40.7337 65.9035V65.9864ZM27.2829 65.9864C27.2549 65.3676 27.3557 64.7497 27.5787 64.1718C27.8017 63.5939 28.1422 63.0686 28.5787 62.629C29.0152 62.1894 29.5381 61.8452 30.1144 61.6181C30.6907 61.3909 31.3078 61.2858 31.9268 61.3094C33.117 61.3803 34.2351 61.9031 35.0526 62.7709C35.8702 63.6387 36.3255 64.7859 36.3255 65.9782C36.3255 67.1704 35.8702 68.3176 35.0526 69.1854C34.2351 70.0532 33.117 70.576 31.9268 70.6469C31.3013 70.6738 30.6771 70.5688 30.0948 70.3385C29.5125 70.1083 28.9852 69.7581 28.5472 69.3107C28.1092 68.8633 27.7702 68.3287 27.5524 67.7417C27.3346 67.1547 27.2428 66.5284 27.2829 65.9035V65.9864ZM0 58.1416V73.7982H4.04683V63.8635L8.52488 73.7152H11.842L16.4195 63.8635V73.7152H20.5824V58.1416H15.6068L10.3327 68.5904H10.1834L5.3239 58.1416H0Z" fill="#3C3C3B"/>
<path fill-rule="evenodd" clip-rule="evenodd" d="M73.0671 3.31707C73.6089 7.99415 74.1618 12.6104 74.7257 17.1659C75.2564 21.6439 75.7871 26.0888 76.3013 30.4341H76.8983C77.418 26.0114 77.9156 21.6826 78.391 17.4478C78.8665 13.213 79.3419 9.05561 79.8174 4.97561L84.6271 6.10342L88.8564 7.09854V37.7981L84.3949 38.8429C84.3949 34.9122 84.3949 30.9649 84.3949 27.0341V15.2088H83.9305C83.4993 19.1561 83.0681 23.1532 82.6369 27.2C82.2057 31.28 81.7579 35.4927 81.31 39.6224L76.6164 40.7171L71.2427 41.9776C70.6622 37.4166 70.0486 32.7727 69.4515 28.0624C68.8544 23.3522 68.2076 18.4429 67.5774 13.5171H66.8476V42.9727L58.671 44.88V0L66.4661 1.82439L73.1003 3.38341" fill="#EBAF00"/>
<path fill-rule="evenodd" clip-rule="evenodd" d="M58.6546 0L46 7.08195V37.7981L58.6546 44.88V0Z" fill="#3C3C3B"/>
<path opacity="0.23" fill-rule="evenodd" clip-rule="evenodd" d="M46 37.7982L50.2956 35.1611L49.9307 39.9875L46 37.7982Z" fill="#575756"/>
<path opacity="0.23" fill-rule="evenodd" clip-rule="evenodd" d="M46 33.7515L50.2956 35.1612L46 37.7983V33.7515Z" fill="#1D1D1B"/>
<path opacity="0.23" fill-rule="evenodd" clip-rule="evenodd" d="M58.6544 44.8804V37.8979L53.7783 39.2082L58.6544 44.8804Z" fill="#575756"/>
<path opacity="0.23" fill-rule="evenodd" clip-rule="evenodd" d="M50.2955 35.1606L56.1999 28.6426L53.7785 39.2075L50.2955 35.1606Z" fill="#878787"/>
<path opacity="0.23" fill-rule="evenodd" clip-rule="evenodd" d="M58.6544 37.898L54.989 33.9175L53.7783 39.2082L58.6544 37.898Z" fill="#1D1D1B"/>
<path opacity="0.23" fill-rule="evenodd" clip-rule="evenodd" d="M53.5296 31.5791L48.4379 30.0864L50.2954 35.1616L53.5296 31.5791Z" fill="#1D1D1B"/>
<path opacity="0.23" fill-rule="evenodd" clip-rule="evenodd" d="M47.2437 26.8181L50.4613 22.0249L48.4379 30.0854L47.2437 26.8181Z" fill="#575756"/>
<path opacity="0.23" fill-rule="evenodd" clip-rule="evenodd" d="M58.6544 18.9395L54.79 26.7843L58.6544 25.4243V18.9395Z" fill="#1D1D1B"/>
<path opacity="0.23" fill-rule="evenodd" clip-rule="evenodd" d="M46 18.9907L48.2556 20.9644L46 21.6278V18.9907Z" fill="#575756"/>
<path opacity="0.23" fill-rule="evenodd" clip-rule="evenodd" d="M49.9306 24.1484L53.5296 31.5787L48.4379 30.086L49.9306 24.1484Z" fill="#6F6F6E"/>
<path opacity="0.23" fill-rule="evenodd" clip-rule="evenodd" d="M58.6544 44.8802L50.2954 35.1611L49.9305 39.9875L58.6544 44.8802Z" fill="#1D1D1B"/>
<path opacity="0.23" fill-rule="evenodd" clip-rule="evenodd" d="M58.6545 30.8492L60.4291 27.2668L58.6545 25.4258V30.8492Z" fill="#F9CD4A"/>
<path opacity="0.69" fill-rule="evenodd" clip-rule="evenodd" d="M66.8311 42.9731L58.6545 37.8979V44.8804L66.8311 42.9731Z" fill="#A85B04"/>
<path opacity="0.69" fill-rule="evenodd" clip-rule="evenodd" d="M66.8311 36.0894L62.7345 40.4347L66.8311 42.9723V36.0894Z" fill="#B57000"/>
<path opacity="0.69" fill-rule="evenodd" clip-rule="evenodd" d="M58.6545 30.8491L62.7345 40.4355L58.6545 37.8979V30.8491Z" fill="#BB7D00"/>
<path opacity="0.69" fill-rule="evenodd" clip-rule="evenodd" d="M66.8311 36.0893L60.8935 36.0728L62.7345 40.4347L66.8311 36.0893Z" fill="#D5A000"/>
<path opacity="0.69" fill-rule="evenodd" clip-rule="evenodd" d="M66.8311 29.7871L63.8623 36.073L66.8311 36.0895V29.7871Z" fill="#EFAD0D"/>
<path opacity="0.69" fill-rule="evenodd" clip-rule="evenodd" d="M60.8935 36.0734L62.6681 30.7163L63.8623 36.0734H60.8935Z" fill="#F3B527"/>
<path opacity="0.69" fill-rule="evenodd" clip-rule="evenodd" d="M62.6682 30.7159L66.8311 29.7871L63.8624 36.073L62.6682 30.7159Z" fill="#E19E00"/>
<path opacity="0.69" fill-rule="evenodd" clip-rule="evenodd" d="M66.8311 25.2935L62.6682 30.7169L66.8311 29.7881V25.2935Z" fill="#F3B71B"/>
<path opacity="0.69" fill-rule="evenodd" clip-rule="evenodd" d="M63.2487 23.0869L61.9716 26.5201L65.5872 24.8118L63.2487 23.0869Z" fill="#F9CD4A"/>
<path opacity="0.69" fill-rule="evenodd" clip-rule="evenodd" d="M66.8311 19.0234L65.8525 21.4117L66.8311 22.639V19.0234Z" fill="#F9CD4A"/>
<path d="M14 79.9277H22.6757V81.778H19.4801V87.6394H17.2678V81.778H14V79.9277Z" fill="#B1B2B3"/>
<path d="M30.0685 81.0098C30.4727 81.3609 30.7955 81.7883 31.0164 82.2649C31.2373 82.7415 31.3513 83.2567 31.3513 83.7776C31.3513 84.2985 31.2373 84.8138 31.0164 85.2903C30.7955 85.7669 30.4727 86.1944 30.0685 86.5454C29.2231 87.2507 28.1374 87.6394 27.0135 87.6394C25.8896 87.6394 24.8039 87.2507 23.9585 86.5454C23.5543 86.1944 23.2315 85.7669 23.0106 85.2903C22.7897 84.8138 22.6757 84.2985 22.6757 83.7776C22.6757 83.2567 22.7897 82.7415 23.0106 82.2649C23.2315 81.7883 23.5543 81.3609 23.9585 81.0098C24.7971 80.2953 25.8884 79.909 27.0135 79.9284C28.1386 79.909 29.2299 80.2953 30.0685 81.0098ZM25.3778 82.1942C25.1597 82.4004 24.9893 82.6478 24.8775 82.9205C24.7658 83.1932 24.7152 83.4852 24.729 83.7776C24.7048 84.0765 24.7457 84.377 24.8492 84.6601C24.9527 84.9432 25.1165 85.2029 25.3304 85.4229C25.5443 85.6429 25.8036 85.8184 26.0921 85.9385C26.3805 86.0585 26.6919 86.1205 27.0067 86.1205C27.3215 86.1205 27.6329 86.0585 27.9214 85.9385C28.2099 85.8184 28.4692 85.6429 28.6831 85.4229C28.8969 85.2029 29.0608 84.9432 29.1643 84.6601C29.2678 84.377 29.3087 84.0765 29.2845 83.7776C29.2983 83.4852 29.2477 83.1932 29.136 82.9205C29.0242 82.6478 28.8538 82.4004 28.6356 82.1942C28.1915 81.8052 27.6101 81.5892 27.0067 81.5892C26.4033 81.5892 25.822 81.8052 25.3778 82.1942Z" fill="#B1B2B3"/>
<path d="M32.3153 79.93H36.8381C37.2571 79.9142 37.6751 79.9824 38.0679 80.1308C38.4607 80.2791 38.8204 80.5045 39.1262 80.7941C39.4226 81.0751 39.656 81.4169 39.8106 81.7965C39.9652 82.1761 40.0376 82.5847 40.0227 82.9949C40.0456 83.402 39.9769 83.809 39.8216 84.1855C39.6663 84.562 39.4286 84.8981 39.1262 85.1686C38.4969 85.7299 37.6774 86.0249 36.8381 85.9922H34.3492V87.6394H32.3153V79.93ZM34.3492 81.8067V84.129H36.7578C37.0779 84.1398 37.3912 84.0344 37.6409 83.832C37.7562 83.7274 37.8463 83.5976 37.9043 83.4525C37.9623 83.3074 37.9866 83.1509 37.9754 82.9949C37.9832 82.8352 37.9574 82.6756 37.8997 82.5267C37.8421 82.3778 37.7539 82.2428 37.6409 82.1307C37.4006 81.9091 37.083 81.7926 36.7578 81.8067H34.3492Z" fill="#B1B2B3"/>
<path d="M40.991 79.9277H47.7387V81.7915H42.9153V87.6394H40.991V79.9277Z" fill="#B1B2B3"/>
<path d="M56.0956 81.0093C56.4997 81.3604 56.8225 81.7879 57.0434 82.2645C57.2643 82.7411 57.3784 83.2563 57.3784 83.7773C57.3784 84.2983 57.2643 84.8135 57.0434 85.2901C56.8225 85.7668 56.4997 86.1943 56.0956 86.5453C55.2501 87.2506 54.1645 87.6394 53.0405 87.6394C51.9166 87.6394 50.831 87.2506 49.9855 86.5453C49.5814 86.1943 49.2585 85.7668 49.0377 85.2901C48.8168 84.8135 48.7027 84.2983 48.7027 83.7773C48.7027 83.2563 48.8168 82.7411 49.0377 82.2645C49.2585 81.7879 49.5814 81.3604 49.9855 81.0093C50.8348 80.3116 51.919 79.9277 53.0405 79.9277C54.1621 79.9277 55.2463 80.3116 56.0956 81.0093ZM51.4049 82.1937C51.1867 82.4 51.0163 82.6474 50.9046 82.9202C50.7928 83.1929 50.7422 83.4849 50.756 83.7773C50.7318 84.0762 50.7728 84.3767 50.8763 84.6599C50.9798 84.943 51.1436 85.2028 51.3574 85.4228C51.5713 85.6428 51.8306 85.8183 52.1191 85.9383C52.4076 86.0584 52.719 86.1204 53.0338 86.1204C53.3486 86.1204 53.66 86.0584 53.9485 85.9383C54.2369 85.8183 54.4962 85.6428 54.7101 85.4228C54.924 85.2028 55.0878 84.943 55.1913 84.6599C55.2948 84.3767 55.3357 84.0762 55.3115 83.7773C55.3253 83.4849 55.2747 83.1929 55.163 82.9202C55.0512 82.6474 54.8808 82.4 54.6627 82.1937C54.2186 81.8047 53.6372 81.5888 53.0338 81.5888C52.4304 81.5888 51.849 81.8047 51.4049 82.1937Z" fill="#B1B2B3"/>
<path d="M58.3423 79.9295H63.2062C63.8178 79.9061 64.4159 80.1178 64.8843 80.5235C65.0999 80.712 65.2709 80.9485 65.3845 81.2152C65.4981 81.4819 65.5512 81.7717 65.5398 82.0627C65.5616 82.2946 65.5248 82.5284 65.4329 82.7413C65.341 82.9543 65.1972 83.1391 65.0154 83.2778C65.3465 83.4672 65.6192 83.7486 65.8023 84.09C65.9855 84.4314 66.0717 84.819 66.0511 85.2085C66.0579 85.5329 65.9971 85.855 65.8727 86.1531C65.7483 86.4513 65.5632 86.7184 65.33 86.9366C65.1019 87.167 64.8312 87.3478 64.5339 87.4684C64.2366 87.589 63.9189 87.6469 63.5995 87.6387H58.3555L58.3423 79.9295ZM60.3351 81.7792V82.8052H63.1931C63.2476 82.8002 63.3004 82.7832 63.3479 82.7552C63.3954 82.7272 63.4365 82.689 63.4684 82.6432C63.5479 82.5439 63.5939 82.4207 63.5995 82.2922C63.5986 82.165 63.5571 82.0417 63.4815 81.9412C63.4395 81.8869 63.3854 81.8438 63.3238 81.8156C63.2621 81.7874 63.1948 81.7749 63.1275 81.7792H60.3351ZM60.3351 84.5874V85.789H63.547C63.6198 85.7908 63.6922 85.7774 63.7599 85.7496C63.8275 85.7217 63.8889 85.68 63.9404 85.627C63.9935 85.5724 64.035 85.507 64.062 85.4349C64.0891 85.3628 64.1013 85.2857 64.0977 85.2085C64.0995 85.0427 64.0384 84.8828 63.9272 84.7629C63.8689 84.7033 63.7991 84.6569 63.7224 84.6267C63.6456 84.5964 63.5636 84.5831 63.4815 84.5874H60.3351Z" fill="#B1B2B3"/>
<path d="M67.018 79.9277H68.9409V81.5885H71.2053C72.0004 81.5555 72.7778 81.8449 73.3812 82.3986C73.6636 82.6662 73.8864 82.9979 74.033 83.3694C74.1797 83.7409 74.2466 84.1427 74.2288 84.5454C74.2392 84.9627 74.1655 85.3776 74.0127 85.762C73.8599 86.1463 73.6316 86.4912 73.3432 86.7732C72.7538 87.3575 71.9713 87.6683 71.1674 87.6373H67.018V79.9277ZM68.9409 83.4112V85.7741H71.0661C71.9011 85.7741 72.3312 85.369 72.3312 84.5454C72.3463 84.3861 72.3268 84.2253 72.2741 84.0754C72.2215 83.9255 72.1371 83.7906 72.0276 83.6813C71.7507 83.4756 71.4149 83.38 71.0788 83.4112H68.9409ZM74.7474 79.9277H76.6576V87.6373H74.6968L74.7474 79.9277Z" fill="#B1B2B3"/>
<path d="M78.5856 80.1712H80.533V84.9191L84.4278 80.1712H86.2973V87.6396H84.3499V82.931L80.4551 87.6396H78.5856V80.1712ZM83.8825 78L84.7913 79.0725C84.446 79.3753 84.0505 79.6144 83.6229 79.7788C82.8513 80.0055 82.0315 80.0055 81.26 79.7788C80.8361 79.6148 80.4448 79.3756 80.1045 79.0725L81.0263 78C81.4412 78.2902 81.9364 78.4412 82.4414 78.4316C82.9546 78.4415 83.4581 78.2906 83.8825 78Z" fill="#B1B2B3"/>
<path d="M93.9821 79.9277H99.9274V85.5187H100.757V88.6034H99.0854L98.945 87.3181H93.8417L93.7141 88.6034H92.0811V85.5187H92.9741L93.9821 79.9277ZM95.5768 81.6243L94.9517 85.4802H97.9882V81.6243H95.5768Z" fill="#B1B2B3"/>
<path d="M109.116 81.0103C109.519 81.3613 109.841 81.7886 110.062 82.2651C110.282 82.7415 110.396 83.2565 110.396 83.7773C110.396 84.2981 110.282 84.8132 110.062 85.2896C109.841 85.766 109.519 86.1934 109.116 86.5443C108.269 87.2503 107.183 87.6394 106.059 87.6394C104.934 87.6394 103.848 87.2503 103.002 86.5443C102.598 86.1934 102.276 85.766 102.055 85.2896C101.835 84.8132 101.721 84.2981 101.721 83.7773C101.721 83.2565 101.835 82.7415 102.055 82.2651C102.276 81.7886 102.598 81.3613 103.002 81.0103C103.852 80.3119 104.936 79.9277 106.059 79.9277C107.181 79.9277 108.265 80.3119 109.116 81.0103ZM104.419 82.1943C104.201 82.4005 104.031 82.6479 103.919 82.9205C103.808 83.1931 103.757 83.485 103.771 83.7773C103.771 84.063 103.83 84.3458 103.944 84.6097C104.059 84.8736 104.227 85.1133 104.439 85.3153C104.651 85.5173 104.902 85.6775 105.179 85.7868C105.456 85.8961 105.752 85.9523 106.052 85.9523C106.351 85.9523 106.648 85.8961 106.925 85.7868C107.201 85.6775 107.453 85.5173 107.665 85.3153C107.876 85.1133 108.044 84.8736 108.159 84.6097C108.274 84.3458 108.333 84.063 108.333 83.7773C108.347 83.485 108.296 83.1931 108.184 82.9205C108.073 82.6479 107.903 82.4005 107.685 82.1943C107.239 81.8046 106.657 81.5883 106.052 81.5883C105.447 81.5883 104.864 81.8046 104.419 82.1943Z" fill="#B1B2B3"/>
<path d="M111.36 79.9277H113.854L116.129 85.0734L118.609 79.9277H121V87.6394H119.046V82.7909L116.913 87.6394H115.345L113.288 82.7909V87.6394H111.36V79.9277Z" fill="#B1B2B3"/>
</svg>
