<svg width="43" height="45" viewBox="0 0 43 45" fill="none" xmlns="http://www.w3.org/2000/svg">
<path fill-rule="evenodd" clip-rule="evenodd" d="M27.0671 3.31707C27.6089 7.99415 28.1618 12.6104 28.7257 17.1659C29.2564 21.6439 29.7871 26.0888 30.3013 30.4341H30.8983C31.418 26.0114 31.9156 21.6826 32.391 17.4478C32.8665 13.213 33.3419 9.05561 33.8174 4.97561L38.6271 6.10342L42.8564 7.09854V37.7981L38.3949 38.8429C38.3949 34.9122 38.3949 30.9649 38.3949 27.0341V15.2088H37.9305C37.4993 19.1561 37.0681 23.1532 36.6369 27.2C36.2057 31.28 35.7579 35.4927 35.31 39.6224L30.6164 40.7171L25.2427 41.9776C24.6622 37.4166 24.0486 32.7727 23.4515 28.0624C22.8544 23.3522 22.2076 18.4429 21.5774 13.5171H20.8476V42.9727L12.671 44.88V0L20.4661 1.82439L27.1003 3.38341" fill="#EBAF00"/>
<path fill-rule="evenodd" clip-rule="evenodd" d="M12.6546 0L0 7.08195V37.7981L12.6546 44.88V0Z" fill="#3C3C3B"/>
<path opacity="0.23" fill-rule="evenodd" clip-rule="evenodd" d="M0 37.7982L4.29561 35.1611L3.93073 39.9875L0 37.7982Z" fill="#575756"/>
<path opacity="0.23" fill-rule="evenodd" clip-rule="evenodd" d="M0 33.7515L4.29561 35.1612L0 37.7983V33.7515Z" fill="#1D1D1B"/>
<path opacity="0.23" fill-rule="evenodd" clip-rule="evenodd" d="M12.6544 44.8804V37.8979L7.77826 39.2082L12.6544 44.8804Z" fill="#575756"/>
<path opacity="0.23" fill-rule="evenodd" clip-rule="evenodd" d="M4.29553 35.1606L10.1999 28.6426L7.77846 39.2075L4.29553 35.1606Z" fill="#878787"/>
<path opacity="0.23" fill-rule="evenodd" clip-rule="evenodd" d="M12.6544 37.898L8.98899 33.9175L7.77826 39.2082L12.6544 37.898Z" fill="#1D1D1B"/>
<path opacity="0.23" fill-rule="evenodd" clip-rule="evenodd" d="M7.52958 31.5791L2.43787 30.0864L4.29543 35.1616L7.52958 31.5791Z" fill="#1D1D1B"/>
<path opacity="0.23" fill-rule="evenodd" clip-rule="evenodd" d="M1.24371 26.8181L4.46128 22.0249L2.43786 30.0854L1.24371 26.8181Z" fill="#575756"/>
<path opacity="0.23" fill-rule="evenodd" clip-rule="evenodd" d="M12.6544 18.9395L8.79004 26.7843L12.6544 25.4243V18.9395Z" fill="#1D1D1B"/>
<path opacity="0.23" fill-rule="evenodd" clip-rule="evenodd" d="M0 18.9907L2.25561 20.9644L0 21.6278V18.9907Z" fill="#575756"/>
<path opacity="0.23" fill-rule="evenodd" clip-rule="evenodd" d="M3.93055 24.1484L7.52958 31.5787L2.43787 30.086L3.93055 24.1484Z" fill="#6F6F6E"/>
<path opacity="0.23" fill-rule="evenodd" clip-rule="evenodd" d="M12.6544 44.8802L4.29536 35.1611L3.93048 39.9875L12.6544 44.8802Z" fill="#1D1D1B"/>
<path opacity="0.23" fill-rule="evenodd" clip-rule="evenodd" d="M12.6545 30.8492L14.4291 27.2668L12.6545 25.4258V30.8492Z" fill="#F9CD4A"/>
<path opacity="0.69" fill-rule="evenodd" clip-rule="evenodd" d="M20.8311 42.9731L12.6545 37.8979V44.8804L20.8311 42.9731Z" fill="#A85B04"/>
<path opacity="0.69" fill-rule="evenodd" clip-rule="evenodd" d="M20.8311 36.0894L16.7345 40.4347L20.8311 42.9723V36.0894Z" fill="#B57000"/>
<path opacity="0.69" fill-rule="evenodd" clip-rule="evenodd" d="M12.6545 30.8491L16.7345 40.4355L12.6545 37.8979V30.8491Z" fill="#BB7D00"/>
<path opacity="0.69" fill-rule="evenodd" clip-rule="evenodd" d="M20.8311 36.0893L14.8935 36.0728L16.7345 40.4347L20.8311 36.0893Z" fill="#D5A000"/>
<path opacity="0.69" fill-rule="evenodd" clip-rule="evenodd" d="M20.8311 29.7871L17.8623 36.073L20.8311 36.0895V29.7871Z" fill="#EFAD0D"/>
<path opacity="0.69" fill-rule="evenodd" clip-rule="evenodd" d="M14.8935 36.0734L16.6681 30.7163L17.8623 36.0734H14.8935Z" fill="#F3B527"/>
<path opacity="0.69" fill-rule="evenodd" clip-rule="evenodd" d="M16.6682 30.7159L20.8311 29.7871L17.8624 36.073L16.6682 30.7159Z" fill="#E19E00"/>
<path opacity="0.69" fill-rule="evenodd" clip-rule="evenodd" d="M20.8311 25.2935L16.6682 30.7169L20.8311 29.7881V25.2935Z" fill="#F3B71B"/>
<path opacity="0.69" fill-rule="evenodd" clip-rule="evenodd" d="M17.2487 23.0869L15.9716 26.5201L19.5872 24.8118L17.2487 23.0869Z" fill="#F9CD4A"/>
<path opacity="0.69" fill-rule="evenodd" clip-rule="evenodd" d="M20.8311 19.0234L19.8525 21.4117L20.8311 22.639V19.0234Z" fill="#F9CD4A"/>
</svg>
