<svg width="17" height="17" viewBox="0 0 17 17" fill="none" xmlns="http://www.w3.org/2000/svg">
<path d="M2.13782 2.13782C3.51641 0.759223 5.34932 0 7.29891 0C9.2485 0 11.0814 0.759223 12.46 2.13782C13.8385 3.51638 14.5978 5.34929 14.5978 7.29884C14.5978 9.08129 13.9628 10.7659 12.8004 12.0953L16.854 16.1489C17.0487 16.3436 17.0487 16.6592 16.854 16.854C16.7566 16.9513 16.629 17 16.5015 17C16.3739 17 16.2463 16.9513 16.1489 16.8539L12.0954 12.8004C10.766 13.9627 9.08135 14.5978 7.29891 14.5978C5.34929 14.5978 3.51644 13.8385 2.13785 12.4599C0.759289 11.0814 6.67572e-05 9.24846 6.67572e-05 7.29888C6.67572e-05 5.34929 0.759256 3.51638 2.13782 2.13782ZM2.84292 11.7549C5.29998 14.2119 9.2978 14.2119 11.7549 11.7549C14.2119 9.29784 14.2119 5.29995 11.7549 2.84292C10.5262 1.61427 8.91282 1.00014 7.29888 1.00014C5.68534 1.00014 4.07127 1.61457 2.84289 2.84292C0.38592 5.29992 0.38592 9.2978 2.84292 11.7549Z" fill="#B1B2B3"/>
</svg>
