<svg width="0" height="0" class="hidden">

  <symbol viewBox="0 0 12 9"  xmlns="http://www.w3.org/2000/svg" id="icon-available">
    <path d="M5.29657 8.5801C4.76607 9.1106 3.90528 9.1106 3.37504 8.5801L0.397877 5.60294C-0.132626 5.0727 -0.132626 4.21191 0.397877 3.68166C0.928122 3.15116 1.78891 3.15116 2.31941 3.68166L4.09321 5.45521C4.22712 5.58886 4.44449 5.58886 4.57865 5.45521L9.38159 0.652271C9.91184 0.121769 10.7726 0.121769 11.3031 0.652271C11.5579 0.907025 11.701 1.25267 11.701 1.61291C11.701 1.97315 11.5579 2.31879 11.3031 2.57355L5.29657 8.5801Z" fill="#52BC6A"/>
  </symbol>
  <symbol viewBox="0 0 14 13"  xmlns="http://www.w3.org/2000/svg" id="icon-delivery">
    <path d="M8.2211 2.29369V2.2904L10.6825 3.39285L13.1538 2.46633L6.57688 0L0 2.46633L6.57688 4.93266L9.03828 4.00943L6.57688 2.99495V2.99248L8.2211 2.29369Z" fill="#B1B2B3"/>
	<path d="M0 3.28857V10.6876L6.16582 13.0002V5.60117L0 3.28857ZM3.28844 10.7147L1.64422 10.0981V9.22092L3.28844 9.8375V10.7147Z" fill="#B1B2B3"/>
	<path d="M10.6878 4.21345V6.27283L9.04356 6.88942V4.83003L6.98828 5.60117V13.0002L13.1541 10.6876V3.28857L10.6878 4.21345Z" fill="#B1B2B3"/>
  </symbol>
  <symbol viewBox="0 0 15 15"  xmlns="http://www.w3.org/2000/svg" id="icon-pen">
    <path d="M1.5 10.3501L0 15.0001L4.65001 13.5001L1.5 10.3501Z" fill="#B1B2B3"/>
	<path d="M9.87215 1.95403L2.55371 9.27246L5.73565 12.4544L13.0541 5.13596L9.87215 1.95403Z" fill="#B1B2B3"/>
	<path d="M14.7752 2.325L12.6752 0.225C12.3752 -0.0750001 11.9252 -0.0750001 11.6252 0.225L10.9502 0.900002L14.1002 4.05001L14.7752 3.37501C15.0752 3.07501 15.0752 2.62501 14.7752 2.325Z" fill="#B1B2B3"/>
  </symbol>
  <symbol viewBox="0 0 11 11"  xmlns="http://www.w3.org/2000/svg" id="icon-star">
    <path d="M10.9712 4.15628C10.8988 3.92385 10.7012 3.75929 10.4684 3.73731L7.29306 3.43649L6.03813 0.370622C5.94548 0.145376 5.73466 0 5.50001 0C5.26535 0 5.05445 0.145376 4.96239 0.370622L3.70746 3.43649L0.531585 3.73731C0.298778 3.75973 0.101639 3.92429 0.0287928 4.15628C-0.0436342 4.3887 0.0232538 4.64364 0.199328 4.80478L2.59966 7.0011L1.89192 10.2539C1.84014 10.493 1.9291 10.7403 2.11927 10.8838C2.22149 10.9613 2.34159 11 2.4621 11C2.56567 11 2.66931 10.9713 2.76188 10.9135L5.50001 9.20504L8.23763 10.9135C8.43846 11.0387 8.69099 11.0272 8.88074 10.8838C9.07092 10.7403 9.15987 10.493 9.10809 10.2539L8.40036 7.0011L10.8007 4.80478C10.9767 4.64364 11.0436 4.38923 10.9712 4.15628Z"  />
  </symbol>
  <symbol viewBox="0 0 13 15"  xmlns="http://www.w3.org/2000/svg" id="icon-print">
    <path d="M12.283 4.21578H10.203V0H2.79704V4.21578H0.716831C0.320813 4.21578 0 4.5366 0 4.93231V9.99934C0 10.395 0.320813 10.7162 0.716831 10.7162H2.35365V9.54488H2.79704V14.2147H10.203V9.54472H10.6463V10.7162H12.2832C12.6792 10.7162 13 10.395 13 9.99949V4.93231C13 4.5366 12.6792 4.21578 12.283 4.21578ZM9.46614 12.3587L8.63288 13.4777H3.53371V9.54472H9.46614V12.3587ZM9.46614 4.21578H3.53371V0.736978H9.46614V4.21578Z" fill="#3C3C3B"/>
  </symbol>
  <symbol viewBox="0 0 17 21"  xmlns="http://www.w3.org/2000/svg" id="icon-arrow">
    <path d="M15.2734 11.951C15.5221 11.78 15.8635 11.8027 16.0875 12.0191L16.0875 12.0191C16.344 12.2668 16.3512 12.6757 16.1034 12.9323L16.1004 12.9354L16.1003 12.9354L8.97534 20.0604L8.97482 20.0609L8.97477 20.0609L8.9744 20.0613C8.72196 20.3131 8.31321 20.3127 8.06128 20.0604L15.2734 11.951ZM15.2734 11.951L15.2563 11.9514L15.1855 12.0221L9.16338 18.045V1.39585C9.16338 1.03916 8.87421 0.75 8.51753 0.75C8.16085 0.75 7.87169 1.03916 7.87169 1.39585V18.045L1.84957 12.0221L1.84959 12.0221L1.84647 12.0191C1.5899 11.7712 1.18103 11.7784 0.933252 12.0349L0.93322 12.035C0.691542 12.2852 0.691513 12.682 0.933241 12.9323L0.933214 12.9323L0.936282 12.9354L8.06105 20.0601L15.2734 11.951Z"  stroke-width="0.5"/>
    <path d="M8.05934 20.061L8.05952 20.0612L8.51637 19.9998L8.51646 20.2498C8.51658 20.2498 8.51669 20.2498 8.51681 20.2498C8.68761 20.2497 8.85146 20.1819 8.9724 20.0612L8.97258 20.061L16.0976 12.936L16.0976 12.936L16.1006 12.9329C16.3424 12.6826 16.3424 12.2858 16.1006 12.0355L16.1006 12.0355C15.8528 11.779 15.444 11.7718 15.1874 12.0197L15.1874 12.0197L15.1843 12.0227L8.51632 18.6907L1.84757 12.0227L1.8476 12.0227L1.84449 12.0197C1.59422 11.778 1.19746 11.778 0.947181 12.0197L0.947147 12.0197C0.69065 12.2675 0.683458 12.6763 0.931314 12.9329L0.931287 12.9329L0.934343 12.936L8.05934 20.061Z" stroke-width="0.5"/>
    <path d="M7.87012 1.3958V1.39585V19.6042C7.87012 19.9608 8.15928 20.25 8.51596 20.25C8.87263 20.25 9.16181 19.9609 9.16181 19.6042V1.39585C9.16181 1.03916 8.87264 0.75 8.51596 0.75C8.15924 0.75 7.87018 1.03919 7.87012 1.3958Z"  stroke-width="0.5"/>
  </symbol>
  <symbol viewBox="0 0 30 22"  xmlns="http://www.w3.org/2000/svg" id="icon-card">
    <path d="M29.8297 5.58624V4.0022C29.8297 2.18772 28.369 0.716797 26.5671 0.716797H3.26262C1.46072 0.716797 0 2.18772 0 4.0022V5.58624C0 5.74822 0.130447 5.87958 0.291305 5.87958H29.5384C29.6992 5.87958 29.8297 5.74822 29.8297 5.58624Z" fill="#3C3C3B"/>
    <path d="M0 8.05067V18.0829C0 19.8974 1.46072 21.3683 3.26262 21.3683H26.5671C28.369 21.3683 29.8297 19.8974 29.8297 18.0829V8.05067C29.8297 7.88868 29.6992 7.75732 29.5384 7.75732H0.291305C0.130447 7.75732 0 7.88868 0 8.05067ZM7.45742 15.7362C7.45742 16.2546 7.04004 16.6749 6.52524 16.6749H5.59307C5.07827 16.6749 4.66089 16.2546 4.66089 15.7362V14.7975C4.66089 14.2791 5.07827 13.8588 5.59307 13.8588H6.52524C7.04004 13.8588 7.45742 14.2791 7.45742 14.7975V15.7362Z" fill="#3C3C3B"/>
  </symbol>
  <symbol viewBox="0 0 36 36"  xmlns="http://www.w3.org/2000/svg" id="icon-money">
    <path d="M1.33165 18.3193C0.953824 18.4594 0.759076 18.8812 0.896711 19.2631L1.35657 20.5372L4.85797 17.0112L1.33165 18.3193Z" fill="#3C3C3B"/>
    <path d="M4.64551 29.6445L6.7543 35.4843C6.8202 35.6686 6.95783 35.8191 7.13356 35.9001C7.23166 35.9458 7.3371 35.9695 7.44254 35.9695C7.52896 35.9695 7.61387 35.9548 7.69591 35.9238L10.0229 35.0596L4.64551 29.6445Z" fill="#3C3C3B"/>
    <path d="M35.9551 24.6593L33.5418 17.9775L27.7499 23.8099L30.6202 22.7451C30.9966 22.6006 31.4212 22.7982 31.5604 23.1817C31.701 23.5636 31.5062 23.9883 31.1269 24.1284L27.4804 25.4822C27.397 25.5131 27.312 25.5279 27.2271 25.5279C26.9298 25.5279 26.6486 25.3435 26.5403 25.0456C26.5388 25.0412 26.5403 25.0368 26.5388 25.0324L20.4014 31.2128L35.5202 25.6031C35.8995 25.463 36.0942 25.0412 35.9551 24.6593Z" fill="#3C3C3B"/>
    <path d="M35.7851 12.5902L24.0696 0.792819C23.784 0.505258 23.3198 0.505258 23.0342 0.792819L1.06769 22.9128C0.782124 23.2004 0.782124 23.6679 1.06769 23.9555L12.7832 35.7528C12.9252 35.8974 13.1127 35.9696 13.3002 35.9696C13.4876 35.9696 13.675 35.8974 13.8186 35.7543L35.7851 13.6343C36.0707 13.3452 36.0707 12.8792 35.7851 12.5902ZM9.42527 21.0076L6.49637 23.9569C6.35284 24.0999 6.16543 24.1722 5.97796 24.1722C5.79049 24.1722 5.60309 24.1 5.45955 23.9569C5.17399 23.6693 5.17399 23.2019 5.45955 22.9143L8.38845 19.9649C8.67401 19.6774 9.13826 19.6774 9.42382 19.9649C9.70939 20.2526 9.71083 20.7185 9.42527 21.0076ZM22.0706 21.944C21.5522 22.466 20.8479 22.7167 20.0643 22.7167C18.7698 22.7167 17.257 22.034 15.9917 20.7584C15.0662 19.8263 14.416 18.7115 14.1627 17.6203C13.8815 16.4037 14.1129 15.3449 14.8143 14.6371C15.5158 13.9292 16.5673 13.6962 17.7769 13.9808C18.8606 14.236 19.9677 14.8892 20.8932 15.8227C22.9273 17.8695 23.4457 20.5593 22.0706 21.944ZM31.3918 13.6343L28.4629 16.5836C28.3194 16.7266 28.132 16.7989 27.9445 16.7989C27.757 16.7989 27.5696 16.7267 27.4261 16.5836C27.1405 16.2961 27.1405 15.8286 27.4261 15.541L30.355 12.5916C30.6405 12.3041 31.1048 12.3041 31.3903 12.5916C31.6759 12.8792 31.6774 13.3452 31.3918 13.6343Z" fill="#3C3C3B"/>
  </symbol>
  <symbol viewBox="0 0 6 7"  xmlns="http://www.w3.org/2000/svg" id="icon-place">
    <path d="M3 0A2.628 2.628 0 0 0 .375 2.625c0 1.937 2.422 4.238 2.525 4.335a.146.146 0 0 0 .2 0c.103-.097 2.525-2.398 2.525-4.335A2.628 2.628 0 0 0 3 0zm0 4.083a1.46 1.46 0 0 1-1.458-1.458A1.46 1.46 0 0 1 3 1.167a1.46 1.46 0 0 1 1.458 1.458A1.46 1.46 0 0 1 3 4.083z"></path>
  </symbol>
  <symbol viewBox="0 0 40 38" fill="none" xmlns="http://www.w3.org/2000/svg" id="advant-1">
    <path d="M37.344 32.841a2.623 2.623 0 0 0-2.62-2.703v-12.12l2.36-1.77a.656.656 0 0 0-.007-1.053l-5.628-4.113V3.931a.655.655 0 0 0 .656-.655V.656A.655.655 0 0 0 31.449 0h-6.551a.655.655 0 0 0-.655.655v2.62a.655.655 0 0 0 .655.656v2.364l-4.855-3.548a.655.655 0 0 0-.773 0L2.235 15.195a.655.655 0 0 0-.006 1.053l2.358 1.77v12.12a2.624 2.624 0 0 0-2.619 2.703A2.62 2.62 0 0 0 2.622 38H36.69a2.62 2.62 0 0 0 .653-5.159zM25.553 1.311h5.241v1.31h-5.241V1.31zm.655 5.896V3.93h3.931v6.194l-3.993-2.918h.062zm-6.552-3.12L35.59 15.731l-1.526 1.144L20.042 6.677a.655.655 0 0 0-.771 0L5.248 16.875l-1.525-1.144L19.656 4.087zM1.311 35.38a1.312 1.312 0 0 1 1.291-1.31h.002a.847.847 0 0 0 .1.01.656.656 0 0 0 .658-.877 1.289 1.289 0 0 1-.085-.443 1.312 1.312 0 0 1 1.31-1.31v5.24H2.622a1.312 1.312 0 0 1-1.31-1.31zm28.173 1.31h-7.862V22.277h7.862V36.69zm1.31 0V21.622a.655.655 0 0 0-.655-.655h-9.172a.655.655 0 0 0-.655.655V36.69H5.897V18.023L19.656 8.017l13.759 10.006V36.69h-2.62zm5.897 0h-1.966v-5.24a1.312 1.312 0 0 1 1.31 1.31c-.001.151-.03.302-.084.444a.654.654 0 0 0 .657.877 1.35 1.35 0 0 0 .1-.01h.002a1.31 1.31 0 0 1-.02 2.62z" fill="#fff"></path>
    <path d="M17.036 20.966H9.174a.655.655 0 0 0-.656.655v9.172a.655.655 0 0 0 .656.655h7.862a.655.655 0 0 0 .655-.655v-9.172a.655.655 0 0 0-.655-.655zm-.656 4.586h-2.62v-3.276h2.62v3.276zm-3.93-3.276v3.276H9.828v-3.276h2.62zm-2.621 4.586h2.62v3.276H9.83v-3.276zm3.93 3.276v-3.276h2.621v3.276h-2.62zm10.434-1.06a.655.655 0 1 0-1.21-.501.655.655 0 0 0 1.21.501z" fill="#fff"></path>
  </symbol>
  <symbol viewBox="0 0 39 38" fill="none" xmlns="http://www.w3.org/2000/svg" id="advant-2">
    <path d="M27.458 25.373a14.091 14.091 0 1 0-16.909 0l-7.296 7.29a.613.613 0 0 0 .496 1.042l4.84-.533v4.215a.613.613 0 0 0 .38.564.612.612 0 0 0 .668-.129l9.367-9.373 9.367 9.373a.612.612 0 0 0 .943-.095.613.613 0 0 0 .105-.34v-4.215l4.834.533a.612.612 0 0 0 .496-1.041l-7.29-7.29zM6.138 14.106a12.866 12.866 0 1 1 25.731 0 12.866 12.866 0 0 1-25.73 0zm3.474 17.92a.612.612 0 0 0-.478-.147l-3.78.417 6.224-6.224a13.857 13.857 0 0 0 6.017 2.052L9.814 35.91v-3.425a.613.613 0 0 0-.202-.46zm19.262-.153a.613.613 0 0 0-.478.147.614.614 0 0 0-.202.466v3.425l-7.781-7.787a13.857 13.857 0 0 0 6.016-2.052l6.225 6.224-3.78-.423z" fill="#fff"></path>
    <path d="M30.644 14.106a11.64 11.64 0 1 0-23.282 0 11.64 11.64 0 0 0 23.282 0zM9.048 11.043h6.28a.614.614 0 0 0 .435-.178l2.45-2.45a.613.613 0 0 0 .178-.435V6.142a1.225 1.225 0 0 1 1.226 1.225v3.063a.613.613 0 0 0 .612.613h5.514v1.225h-4.901v1.226h4.901v1.225h-4.901v1.225h4.901v1.225h-4.901v1.226h4.901v.613a.613.613 0 0 1-.613.612h-7.204l-2.322-1.158a.614.614 0 0 0-.276-.067H9.526a10.256 10.256 0 0 1-.937-4.289c.001-1.038.156-2.07.46-3.063zm1.134 8.577h4.999l2.322 1.158c.085.044.18.067.276.067h7.351a1.838 1.838 0 0 0 1.838-1.837V10.43a.613.613 0 0 0-.612-.612h-5.514v-2.45a2.45 2.45 0 0 0-2.45-2.452h-.613a.613.613 0 0 0-.613.613v2.2l-2.09 2.089h-5.55a10.415 10.415 0 1 1 .656 9.802zM4.913 6.142a.613.613 0 0 0 .612-.778l-.52-1.759.882-.643a.613.613 0 0 0 .239-.613.613.613 0 0 0-.454-.496L4.245 1.51 3.632.34a.613.613 0 0 0-1.078 0l-.613 1.17-1.464.343a.613.613 0 0 0-.465.496.613.613 0 0 0 .239.613l.894.643-.52 1.759a.613.613 0 0 0 .238.668.613.613 0 0 0 .71 0l1.502-1.116L4.55 6.001a.613.613 0 0 0 .362.14zM3.939 2.87a.613.613 0 0 0-.252.662l.13.453-.38-.294a.613.613 0 0 0-.724 0l-.404.294.153-.453a.613.613 0 0 0-.227-.662l-.202-.128.43-.11a.613.613 0 0 0 .385-.3l.227-.405.22.404a.613.613 0 0 0 .392.3l.435.11-.183.13zm34.057-.52a.613.613 0 0 0-.465-.497l-1.428-.361-.613-1.17a.613.613 0 0 0-1.078 0l-.613 1.17-1.464.361a.612.612 0 0 0-.214 1.09l.882.644-.52 1.777a.613.613 0 0 0 .238.668.613.613 0 0 0 .71 0l1.502-1.115L36.409 6a.613.613 0 0 0 .362.14.612.612 0 0 0 .612-.777l-.496-1.759.882-.643a.613.613 0 0 0 .227-.612zm-2.187.52a.612.612 0 0 0-.264.662l.13.453-.38-.294a.613.613 0 0 0-.724 0l-.404.294.153-.453a.613.613 0 0 0-.227-.662l-.177-.128.404-.11a.612.612 0 0 0 .386-.3l.227-.405.22.404a.613.613 0 0 0 .386.3l.435.11-.165.13z" fill="#fff"></path>
  </symbol>
  <symbol viewBox="0 0 38 38" fill="none" xmlns="http://www.w3.org/2000/svg" id="advant-3">
    <path d="M37.987 26.389L35.85 16.286a.559.559 0 0 0-.548-.443H2.695a.56.56 0 0 0-.547.443L.012 26.39a.559.559 0 0 0 .547.675h1.579v10.377a.559.559 0 0 0 .559.56h32.605a.56.56 0 0 0 .56-.56V27.064h1.578a.559.559 0 0 0 .547-.675zM3.149 16.962h15.16l-1.901 8.983H1.248l1.9-8.983zm.106 10.102H16.86a.56.56 0 0 0 .547-.443l1.031-4.874v15.134H3.255v-9.817zm31.488 9.817H19.558V21.747l1.032 4.874a.559.559 0 0 0 .547.443h13.606v9.817zM21.59 25.945l-1.901-8.983h15.16l1.9 8.983H21.59z" fill="#fff"></path>
    <path d="M9.778 33.963H5.52a.56.56 0 0 0 0 1.119h4.26a.56.56 0 0 0 0-1.119zm3.482 0h-1.264a.56.56 0 0 0 0 1.119h1.263a.56.56 0 0 0 0-1.119zM33.145 18.73h-4.26a.56.56 0 0 0 0 1.119h4.26a.56.56 0 0 0 0-1.12zm-6.477 0h-1.263a.56.56 0 0 0 0 1.119h1.263a.56.56 0 0 0 0-1.12zm-7.669-4.78a6.975 6.975 0 1 0-6.975-6.975 6.983 6.983 0 0 0 6.975 6.975zm0-12.831a5.856 5.856 0 1 1-5.856 5.856 5.862 5.862 0 0 1 5.856-5.856z" fill="#fff"></path>
    <path d="M17.624 9.187a.56.56 0 0 0 .792 0l3.721-3.724a.56.56 0 0 0-.79-.79L18.018 8l-1.367-1.367a.56.56 0 0 0-.79.79l1.763 1.764z" fill="#fff"></path>
  </symbol>
  <symbol viewBox="0 0 38 38" fill="none" xmlns="http://www.w3.org/2000/svg" id="advant-4">
    <path d="M37.367 34.2h-1.9V22.167a.633.633 0 0 0-1.152-.363L25.448 34.47a.633.633 0 0 0 .519.996H34.2v1.9a.633.633 0 0 0 1.267 0v-1.9h1.9a.633.633 0 0 0 0-1.267zm-3.167 0h-7.017L34.2 24.176V34.2z" fill="#fff"></path>
    <path d="M25.967 36.733h-7.498l6.97-8.208a.682.682 0 0 0 .045-.06 4.405 4.405 0 0 0-.994-5.98 5.067 5.067 0 0 0-8.023 4.115.633.633 0 0 0 1.266 0 3.8 3.8 0 0 1 6.017-3.087 3.127 3.127 0 0 1 .697 4.221l-7.83 9.223A.633.633 0 0 0 17.1 38h8.867a.633.633 0 0 0 0-1.267z" fill="#fff"></path>
    <path d="M17.114 33.579a.633.633 0 0 0-.61-.657C8.243 32.615 1.61 25.995 1.29 17.733H3.8a.633.633 0 1 0 0-1.266H1.289c.317-8.248 6.93-14.86 15.178-15.178v1.878a.633.633 0 1 0 1.266 0V1.289c8.135.315 14.7 6.757 15.17 14.884l-2.47-2.47a.633.633 0 0 0-.896.895l3.536 3.536c.066.08.152.143.25.181.024.008.05.014.075.019a.62.62 0 0 0 .134.032h.036a.608.608 0 0 0 .142-.028.598.598 0 0 0 .077-.014.624.624 0 0 0 .229-.144l3.583-3.582a.633.633 0 0 0-.895-.895l-2.532 2.53C33.72 7.153 26.234.022 17.145.008c-.016 0-.03-.009-.045-.009-.016 0-.03.008-.045.009C7.646.022.022 7.646.009 17.055c0 .016-.009.03-.009.045 0 .016.008.03.009.045.016 9.177 7.278 16.702 16.449 17.043h.023c.34 0 .62-.27.633-.61z" fill="#fff"></path>
    <path d="M25.609 8.591a.633.633 0 0 0-.896 0l-6.806 6.805a1.983 1.983 0 0 0-1.615 0l-3.223-3.222a.633.633 0 0 0-.895.896l3.216 3.216a1.897 1.897 0 0 0 3.053 2.158 1.88 1.88 0 0 0 .366-2.158l6.8-6.8a.633.633 0 0 0 0-.895zm-8.061 8.957a.648.648 0 0 1-.896 0 .633.633 0 1 1 .896 0z" fill="#fff"></path>
  </symbol>
  <symbol viewBox="0 0 19 19" fill="none" xmlns="http://www.w3.org/2000/svg" id="icon-cart">
    <path d="M18.546 3.605a1.873 1.873 0 0 0-1.428-.624H3.462l-.137-1.02C3.177.86 2.404 0 1.565 0H.562A.56.56 0 0 0 0 .557a.56.56 0 0 0 .562.556h1.003c.18 0 .563.378.646.995l1.609 11.95c.07.527.344 1.02.77 1.39.315.273.687.454 1.078.53-.16.29-.25.622-.25.975A2.06 2.06 0 0 0 7.486 19a2.06 2.06 0 0 0 2.067-2.047c0-.337-.083-.654-.229-.934h2.946c-.146.28-.23.597-.23.934A2.06 2.06 0 0 0 14.109 19a2.06 2.06 0 0 0 2.067-2.047c0-.337-.082-.654-.228-.934h1.472a.56.56 0 0 0 .563-.557.56.56 0 0 0-.563-.556H6.081c-.55 0-1.075-.456-1.147-.995l-.118-.873h11.098c.537 0 1.067-.203 1.492-.572.425-.369.699-.862.77-1.389l.806-5.988a1.835 1.835 0 0 0-.436-1.484zM8.429 16.953a.94.94 0 0 1-.943.934.94.94 0 0 1-.944-.934.94.94 0 0 1 .944-.934.94.94 0 0 1 .943.934zm6.622 0a.94.94 0 0 1-.943.934.94.94 0 0 1-.943-.934.94.94 0 0 1 .943-.934.94.94 0 0 1 .943.934zM17.7 4.338a.74.74 0 0 1 .167.604l-.338 2.51h-3.824l.226-3.358h3.187a.76.76 0 0 1 .582.244zm-7.982 7.586l-.226-3.358h3.011l-.226 3.358h-2.56zm-.301-4.471L9.19 4.094h3.613l-.226 3.359h-3.16zM8.064 4.094l.226 3.359H4.064l-.452-3.359h4.452zm-3.85 4.472h4.151l.226 3.358H4.666l-.452-3.358zm11.7 3.358h-2.51l.226-3.358h3.75l-.319 2.364c-.072.54-.598.994-1.147.994z" fill="#3C3C3B"></path>
  </symbol>
  <symbol viewBox="0 0 10 10" fill="none" xmlns="http://www.w3.org/2000/svg" id="icon-close">
    <rect x="1.093" y="8.7" width="10.811" height="1.004" rx=".502" transform="rotate(-45 1.093 8.7)" fill="#fff"></rect>
    <rect x="1.656" y=".946" width="10.811" height="1.004" rx=".502" transform="rotate(45 1.656 .946)" fill="#fff"></rect>
  </symbol>
  <symbol viewBox="0 0 21 20"  xmlns="http://www.w3.org/2000/svg" id="icon-face">
    <rect x=".784" width="20" height="20" rx="4.1" ></rect>
    <path d="M13.816 2.382l-1.918-.003c-2.156 0-3.55 1.43-3.55 3.642V7.7H6.42a.302.302 0 0 0-.301.302v2.432c0 .167.135.302.301.302h1.93v6.139c0 .166.135.301.301.301h2.518a.302.302 0 0 0 .301-.301v-6.139h2.256a.302.302 0 0 0 .302-.302V8.002a.302.302 0 0 0-.301-.302H11.47V6.277c0-.684.163-1.032 1.055-1.032h1.292a.302.302 0 0 0 .302-.302V2.684a.302.302 0 0 0-.302-.302z" fill="#fff"></path>
  </symbol>
  <symbol viewBox="0 0 20 20"  xmlns="http://www.w3.org/2000/svg" id="icon-inst">
    <path d="M14.245 0H5.287A5.293 5.293 0 0 0 0 5.287v8.958a5.293 5.293 0 0 0 5.287 5.287h8.958a5.293 5.293 0 0 0 5.287-5.287V5.287A5.293 5.293 0 0 0 14.245 0zM9.766 15.107a5.347 5.347 0 0 1-5.34-5.341 5.347 5.347 0 0 1 5.34-5.34 5.347 5.347 0 0 1 5.34 5.34 5.347 5.347 0 0 1-5.34 5.34zm5.468-9.422a1.58 1.58 0 0 1-1.578-1.578c0-.87.708-1.578 1.578-1.578.87 0 1.579.708 1.579 1.578a1.58 1.58 0 0 1-1.579 1.578z" ></path>
    <path d="M9.766 5.57a4.2 4.2 0 0 0-4.195 4.196 4.2 4.2 0 0 0 4.195 4.195 4.2 4.2 0 0 0 4.196-4.195A4.2 4.2 0 0 0 9.766 5.57zm5.468-1.896a.434.434 0 1 0 .001.868.434.434 0 0 0 0-.868z" ></path>
  </symbol>
  <symbol viewBox="0 0 19 19"  xmlns="http://www.w3.org/2000/svg" id="icon-phone">
    <path d="M17.554 14.114l-3.44-2.295a1.004 1.004 0 0 0-1.346.219l-1.002 1.288a.428.428 0 0 1-.55.116l-.19-.105c-.632-.345-1.418-.774-3.003-2.358C6.44 9.393 6.01 8.607 5.664 7.976l-.104-.191a.429.429 0 0 1 .113-.551l1.288-1.002c.412-.323.507-.908.219-1.345l-2.295-3.44a1 1 0 0 0-1.347-.304L2.1 2.007a2.03 2.03 0 0 0-.926 1.201c-.518 1.888-.128 5.146 4.671 9.947 3.818 3.817 6.66 4.844 8.614 4.844.45.002.897-.057 1.332-.174a2.027 2.027 0 0 0 1.2-.926l.866-1.438a1 1 0 0 0-.303-1.347zm-.185 1.057l-.864 1.439c-.19.326-.5.566-.864.67-1.742.478-4.787.081-9.395-4.526C1.638 8.146 1.242 5.1 1.72 3.358c.104-.364.344-.674.671-.865L3.83 1.63a.433.433 0 0 1 .584.131l1.247 1.872 1.046 1.569a.436.436 0 0 1-.095.583L5.324 6.787a.991.991 0 0 0-.262 1.273l.102.186c.362.664.812 1.49 2.456 3.133 1.643 1.643 2.469 2.093 3.132 2.455l.186.103a.991.991 0 0 0 1.273-.263l1.002-1.288a.436.436 0 0 1 .584-.094l3.44 2.294a.433.433 0 0 1 .132.585z" fill="#3C3C3B" stroke="#3C3C3B" stroke-width=".3"></path>
  </symbol>
  <symbol viewBox="0 0 13 14"  xmlns="http://www.w3.org/2000/svg" id="icon-sale">
    <circle cx="6.5" cy="7.5" r="4.5" fill="#3C3C3B"></circle>
    <path d="M12.373 7.302a.397.397 0 0 1 0-.35l.506-1.034a1.176 1.176 0 0 0-.508-1.562l-1.016-.54a.397.397 0 0 1-.207-.283l-.198-1.134a1.176 1.176 0 0 0-1.329-.965l-1.14.161a.397.397 0 0 1-.333-.108l-.827-.8a1.176 1.176 0 0 0-1.642 0l-.827.8a.397.397 0 0 1-.334.108L3.38 1.434a1.176 1.176 0 0 0-1.329.965l-.198 1.134a.397.397 0 0 1-.207.283l-1.016.54c-.566.3-.789.986-.507 1.562L.627 6.95a.397.397 0 0 1 0 .351L.12 8.336a1.176 1.176 0 0 0 .51 1.562l1.016.539c.11.058.185.162.207.284l.198 1.133a1.175 1.175 0 0 0 1.329.965l1.14-.16a.397.397 0 0 1 .333.108l.827.8a1.177 1.177 0 0 0 1.642 0l.827-.8a.397.397 0 0 1 .334-.109l1.139.161a1.176 1.176 0 0 0 1.329-.965l.198-1.133a.397.397 0 0 1 .207-.284l1.016-.54c.566-.3.789-.986.508-1.561l-.506-1.034zM4.937 3.61c.79 0 1.433.643 1.433 1.433s-.643 1.433-1.433 1.433a1.434 1.434 0 0 1 0-2.866zm-.74 6.371a.39.39 0 0 1-.552 0 .39.39 0 0 1 0-.552l5.157-5.157a.39.39 0 0 1 .553.552L4.198 9.981zm3.866.662c-.79 0-1.433-.643-1.433-1.433s.643-1.432 1.433-1.432 1.432.643 1.432 1.432c0 .79-.642 1.433-1.432 1.433z" ></path>
    <path d="M8.063 8.56a.652.652 0 1 0 .001 1.303.652.652 0 0 0-.001-1.304zM4.937 4.391a.652.652 0 1 0 .002 1.304.652.652 0 0 0-.002-1.304z" fill="#FFBE00"></path>
  </symbol>
  <symbol viewBox="0 0 21 20"  xmlns="http://www.w3.org/2000/svg" id="icon-vk">
    <rect x=".199" width="20" height="20" rx="4.1" ></rect>
    <path d="M18.232 13.658c-.044-.073-.316-.664-1.625-1.879-1.37-1.272-1.186-1.065.464-3.265 1.005-1.339 1.407-2.157 1.281-2.507-.12-.333-.858-.245-.858-.245l-2.458.014s-.182-.024-.318.057c-.132.08-.217.263-.217.263s-.39 1.037-.909 1.918c-1.095 1.86-1.534 1.958-1.713 1.843-.416-.27-.311-1.082-.311-1.659 0-1.802.273-2.554-.533-2.748-.268-.064-.464-.107-1.148-.114-.878-.01-1.62.003-2.041.208-.28.137-.496.443-.364.46.162.022.53.1.726.365.252.343.243 1.114.243 1.114s.145 2.121-.338 2.385c-.333.181-.788-.188-1.764-1.876-.5-.864-.878-1.82-.878-1.82s-.073-.178-.203-.273c-.157-.116-.378-.152-.378-.152l-2.337.014s-.35.01-.48.163c-.114.136-.009.416-.009.416s1.83 4.28 3.902 6.439c1.9 1.978 4.058 1.848 4.058 1.848H11s.296-.032.446-.195c.139-.15.134-.43.134-.43s-.02-1.311.59-1.504c.6-.19 1.37 1.268 2.188 1.829.617.424 1.087.331 1.087.331l2.185-.03s1.143-.071.6-.97z" fill="#fff"></path>
  </symbol>
  <symbol viewBox="0 0 19 20"  xmlns="http://www.w3.org/2000/svg" id="icon-yt">
    <path d="M17.815 10.335c-.1-.44-.324-.807-.67-1.105a2.173 2.173 0 0 0-1.193-.524c-1.428-.15-3.581-.224-6.46-.224-2.88 0-5.03.075-6.45.224a2.155 2.155 0 0 0-1.199.524 2.103 2.103 0 0 0-.675 1.105C.966 11.198.865 12.5.865 14.24c0 1.771.101 3.073.303 3.907.101.438.324.807.67 1.104.345.298.743.469 1.193.514 1.428.156 3.582.234 6.46.234 2.88 0 5.034-.078 6.461-.234.45-.045.846-.216 1.188-.514.341-.297.566-.666.675-1.104.202-.864.303-2.166.303-3.907 0-1.77-.101-3.073-.303-3.906zM5.79 11.462H4.544v6.35H3.38v-6.35H2.158v-1.049H5.79v1.05zm3.143 6.35H7.897v-.602c-.42.454-.815.68-1.188.68-.357 0-.582-.137-.675-.412-.062-.179-.093-.45-.093-.815v-4.364h1.036v4.063c0 .238.004.368.012.39.023.157.105.235.244.235.21 0 .431-.157.664-.47V12.3h1.036v5.514zm3.958-1.651c0 .543-.035.915-.104 1.116-.133.409-.408.614-.827.614-.373 0-.733-.205-1.083-.614v.536H9.841v-7.4h1.036v2.422c.334-.401.695-.602 1.083-.602.419 0 .694.208.826.625.07.193.105.561.105 1.104v2.199zm3.935-.915h-2.084v.97c0 .514.178.77.535.77.256 0 .412-.133.466-.401.015-.075.023-.301.023-.68h1.06v.144c0 .365-.009.58-.024.648-.023.2-.104.401-.244.602-.28.395-.7.592-1.258.592-.535 0-.954-.19-1.257-.57-.225-.275-.337-.706-.337-1.294v-1.931c0-.588.108-1.02.325-1.295.303-.379.718-.569 1.246-.569.52 0 .932.19 1.234.57.21.275.315.706.315 1.294v1.15z" ></path>
    <path d="M11.4 13.137c-.178 0-.352.082-.523.245v3.36c.17.163.345.245.524.245.302 0 .454-.25.454-.748v-2.355c0-.498-.152-.747-.454-.747zm3.866 0c-.35 0-.524.253-.524.758v.514h1.047v-.514c0-.505-.174-.758-.523-.758zM5.115 4.453v3.025H6.28V4.453L7.687 0H6.5l-.79 2.935L4.882 0H3.648c.218.625.47 1.32.757 2.087.365 1.027.601 1.816.71 2.366zm4.132 3.103c.536 0 .947-.19 1.234-.57.218-.275.326-.714.326-1.316V3.716c0-.595-.109-1.03-.326-1.306-.287-.379-.698-.569-1.234-.569-.52 0-.927.19-1.222.57-.217.275-.326.71-.326 1.305V5.67c0 .595.109 1.034.326 1.316.295.38.702.57 1.222.57zm-.5-4.04c0-.514.167-.77.5-.77.334 0 .5.256.5.77v2.343c0 .521-.166.781-.5.781-.333 0-.5-.26-.5-.78V3.514zm3.701 4.04c.388 0 .788-.231 1.2-.693v.614h1.059V1.908h-1.06V6.16c-.232.32-.453.48-.663.48-.14 0-.222-.082-.245-.245-.008-.015-.011-.146-.011-.391V1.908h-1.06v4.398c0 .379.032.658.094.837.1.275.33.413.686.413z" ></path>
  </symbol>
  <symbol viewBox="0 0 136 89" fill="none" xmlns="http://www.w3.org/2000/svg" id="logo-full">
    <path fill-rule="evenodd" clip-rule="evenodd" d="M119.415 58.142v3.648h6.086v11.925h4.197V61.79h6.086v-3.648h-16.369zm-18.543 0v15.656h3.997l8.293-9.951v9.951h4.13V58.142h-4.047l-8.293 9.95v-9.95h-4.08zm-15.341 0l-2.057 11.012a.979.979 0 0 1-1.045.88h-2.023v3.764h2.156a4.495 4.495 0 0 0 4.976-4.113l1.476-7.812h4.975v11.925h4.163V58.142H85.531zm-6.137 7.844a8.408 8.408 0 0 0-8.807-8.292 8.29 8.29 0 0 0-9.462 8.21 8.293 8.293 0 0 0 9.462 8.21 8.41 8.41 0 0 0 8.807-8.21v.082zm-13.45 0a4.627 4.627 0 1 1 4.643 4.66 4.477 4.477 0 0 1-4.644-4.743v.083zm-22.69-7.844v15.656h4.164v-6.286h7.662v6.203h4.196V58.142H55.08v5.639h-7.662v-5.64h-4.163zm-2.52 7.844a8.41 8.41 0 0 0-8.807-8.292 8.29 8.29 0 0 0-9.463 8.21 8.293 8.293 0 0 0 9.463 8.21 8.41 8.41 0 0 0 8.807-8.21v.082zm-13.451 0a4.478 4.478 0 0 1 4.644-4.677 4.676 4.676 0 0 1 0 9.338 4.46 4.46 0 0 1-4.644-4.744v.083zM0 58.142v15.656h4.047v-9.934l4.478 9.851h3.317l4.577-9.852v9.852h4.163V58.142h-4.975L10.333 68.59h-.15l-4.86-10.448H0z" fill="#3C3C3B"></path>
    <path fill-rule="evenodd" clip-rule="evenodd" d="M73.067 3.317c.542 4.677 1.095 9.293 1.659 13.849.53 4.478 1.061 8.923 1.575 13.268h.597c.52-4.423 1.018-8.751 1.493-12.986.475-4.235.95-8.392 1.426-12.472l4.81 1.127 4.23.996v30.7l-4.462 1.044V15.209h-.465c-.43 3.947-.862 7.944-1.293 11.991-.431 4.08-.88 8.293-1.327 12.422l-4.694 1.095-5.373 1.26c-.58-4.56-1.194-9.204-1.791-13.915-.598-4.71-1.244-9.62-1.875-14.545h-.73v29.456l-8.176 1.907V0l7.795 1.824 6.634 1.56" fill="#EBAF00"></path>
    <path fill-rule="evenodd" clip-rule="evenodd" d="M58.655 0L46 7.082v30.716l12.655 7.082V0z" fill="#3C3C3B"></path>
    <path opacity=".23" fill-rule="evenodd" clip-rule="evenodd" d="M46 37.798l4.296-2.637-.365 4.826L46 37.798z" fill="#575756"></path>
    <path opacity=".23" fill-rule="evenodd" clip-rule="evenodd" d="M46 33.752l4.296 1.41L46 37.797V33.75z" fill="#1D1D1B"></path>
    <path opacity=".23" fill-rule="evenodd" clip-rule="evenodd" d="M58.654 44.88v-6.982l-4.876 1.31 4.876 5.672z" fill="#575756"></path>
    <path opacity=".23" fill-rule="evenodd" clip-rule="evenodd" d="M50.295 35.16l5.905-6.517-2.422 10.565-3.483-4.047z" fill="#878787"></path>
    <path opacity=".23" fill-rule="evenodd" clip-rule="evenodd" d="M58.654 37.898l-3.665-3.98-1.21 5.29 4.875-1.31zM53.53 31.58l-5.092-1.494 1.857 5.076 3.235-3.583z" fill="#1D1D1B"></path>
    <path opacity=".23" fill-rule="evenodd" clip-rule="evenodd" d="M47.244 26.818l3.217-4.793-2.023 8.06-1.194-3.267z" fill="#575756"></path>
    <path opacity=".23" fill-rule="evenodd" clip-rule="evenodd" d="M58.654 18.94l-3.864 7.844 3.864-1.36V18.94z" fill="#1D1D1B"></path>
    <path opacity=".23" fill-rule="evenodd" clip-rule="evenodd" d="M46 18.99l2.256 1.974-2.256.664V18.99z" fill="#575756"></path>
    <path opacity=".23" fill-rule="evenodd" clip-rule="evenodd" d="M49.93 24.148l3.6 7.43-5.092-1.492 1.493-5.938z" fill="#6F6F6E"></path>
    <path opacity=".23" fill-rule="evenodd" clip-rule="evenodd" d="M58.654 44.88l-8.359-9.719-.364 4.826 8.723 4.893z" fill="#1D1D1B"></path>
    <path opacity=".23" fill-rule="evenodd" clip-rule="evenodd" d="M58.654 30.85l1.775-3.583-1.775-1.841v5.423z" fill="#F9CD4A"></path>
    <path opacity=".69" fill-rule="evenodd" clip-rule="evenodd" d="M66.831 42.973l-8.177-5.075v6.982l8.177-1.907z" fill="#A85B04"></path>
    <path opacity=".69" fill-rule="evenodd" clip-rule="evenodd" d="M66.831 36.09l-4.097 4.345 4.097 2.537V36.09z" fill="#B57000"></path>
    <path opacity=".69" fill-rule="evenodd" clip-rule="evenodd" d="M58.654 30.85l4.08 9.585-4.08-2.537v-7.049z" fill="#BB7D00"></path>
    <path opacity=".69" fill-rule="evenodd" clip-rule="evenodd" d="M66.831 36.09l-5.938-.017 1.841 4.362 4.097-4.346z" fill="#D5A000"></path>
    <path opacity=".69" fill-rule="evenodd" clip-rule="evenodd" d="M66.831 29.787l-2.969 6.286 2.97.017v-6.303z" fill="#EFAD0D"></path>
    <path opacity=".69" fill-rule="evenodd" clip-rule="evenodd" d="M60.894 36.073l1.774-5.357 1.194 5.357h-2.968z" fill="#F3B527"></path>
    <path opacity=".69" fill-rule="evenodd" clip-rule="evenodd" d="M62.668 30.716l4.163-.929-2.969 6.286-1.194-5.357z" fill="#E19E00"></path>
    <path opacity=".69" fill-rule="evenodd" clip-rule="evenodd" d="M66.831 25.294l-4.163 5.423 4.163-.929v-4.494z" fill="#F3B71B"></path>
    <path opacity=".69" fill-rule="evenodd" clip-rule="evenodd" d="M63.249 23.087l-1.277 3.433 3.615-1.708-2.338-1.725zm3.582-4.064l-.978 2.389.978 1.227v-3.616z" fill="#F9CD4A"></path>
    <path d="M14 79.928h8.676v1.85H19.48v5.861h-2.212v-5.861H14v-1.85zm16.069 1.082c.404.35.727.778.947 1.255a3.594 3.594 0 0 1 0 3.025 3.74 3.74 0 0 1-.947 1.255 4.773 4.773 0 0 1-3.055 1.094 4.773 4.773 0 0 1-3.055-1.094 3.756 3.756 0 0 1-.948-1.255 3.594 3.594 0 0 1 0-3.025 3.73 3.73 0 0 1 .948-1.255 4.593 4.593 0 0 1 3.055-1.082 4.593 4.593 0 0 1 3.055 1.082zm-4.691 1.184a2.093 2.093 0 0 0-.5.727 2.01 2.01 0 0 0-.149.857 2.09 2.09 0 0 0 .12.882c.104.283.267.543.481.763.214.22.474.395.762.516a2.383 2.383 0 0 0 1.83 0 2.29 2.29 0 0 0 .761-.516c.214-.22.378-.48.481-.763a2.08 2.08 0 0 0 .12-.882 2.01 2.01 0 0 0-.148-.858 2.092 2.092 0 0 0-.5-.726 2.474 2.474 0 0 0-1.63-.605c-.603 0-1.184.216-1.628.605zm6.937-2.264h4.523a3.144 3.144 0 0 1 2.288.864 2.876 2.876 0 0 1 .897 2.2 2.722 2.722 0 0 1-.897 2.175 3.247 3.247 0 0 1-2.288.823H34.35v1.647h-2.034V79.93zm2.034 1.877v2.322h2.409c.32.01.633-.095.883-.297a1.027 1.027 0 0 0 .334-.837 1.142 1.142 0 0 0-.334-.864 1.224 1.224 0 0 0-.883-.324h-2.409zm6.642-1.879h6.748v1.864h-4.824v5.847h-1.924v-7.711zm15.105 1.082c.404.35.727.778.947 1.254a3.595 3.595 0 0 1 0 3.026 3.74 3.74 0 0 1-.947 1.255 4.773 4.773 0 0 1-3.055 1.094 4.773 4.773 0 0 1-3.055-1.094 3.756 3.756 0 0 1-.948-1.255 3.595 3.595 0 0 1 0-3.026 3.74 3.74 0 0 1 .948-1.255 4.817 4.817 0 0 1 3.055-1.081c1.121 0 2.205.384 3.055 1.081zm-4.691 1.184a2.091 2.091 0 0 0-.5.726 2.008 2.008 0 0 0-.149.857c-.024.3.017.6.12.883.104.283.268.543.481.763.214.22.474.395.762.515a2.382 2.382 0 0 0 1.83 0c.288-.12.547-.295.761-.515.214-.22.378-.48.481-.763a2.08 2.08 0 0 0 .12-.883 2.01 2.01 0 0 0-.148-.857 2.094 2.094 0 0 0-.5-.726 2.474 2.474 0 0 0-1.63-.605c-.603 0-1.184.216-1.628.605zm6.937-2.264h4.864a2.42 2.42 0 0 1 1.678.593c.216.189.387.425.5.692.114.267.167.557.156.848a1.38 1.38 0 0 1-.107.678 1.343 1.343 0 0 1-.418.537c.332.19.604.47.787.812.183.341.27.729.25 1.118.006.325-.055.647-.18.945a2.275 2.275 0 0 1-.542.784 2.38 2.38 0 0 1-.796.531 2.305 2.305 0 0 1-.935.17h-5.243l-.014-7.709zm1.993 1.85v1.025h2.858a.371.371 0 0 0 .275-.162c.08-.1.126-.222.131-.35a.591.591 0 0 0-.117-.352.421.421 0 0 0-.355-.162h-2.792zm0 2.807v1.202h3.212a.526.526 0 0 0 .393-.162.554.554 0 0 0 .158-.418.645.645 0 0 0-.17-.446.588.588 0 0 0-.447-.176h-3.146zm6.683-4.659h1.923v1.66h2.264a3.03 3.03 0 0 1 2.176.81c.283.268.505.6.652.971.147.372.214.774.196 1.176.01.418-.064.833-.216 1.217-.153.384-.381.73-.67 1.011a2.928 2.928 0 0 1-2.176.864h-4.149v-7.71zm1.923 3.483v2.363h2.125c.835 0 1.265-.405 1.265-1.229a1.102 1.102 0 0 0-.057-.47 1.045 1.045 0 0 0-.246-.394 1.375 1.375 0 0 0-.95-.27h-2.137zm5.806-3.483h1.91v7.71h-1.96l.05-7.71zm3.839.243h1.947v4.748l3.895-4.748h1.87v7.469H84.35v-4.71l-3.895 4.709h-1.87V80.17zM83.882 78l.91 1.073a3.928 3.928 0 0 1-1.17.706 4.19 4.19 0 0 1-2.362 0 3.798 3.798 0 0 1-1.156-.706L81.026 78c.415.29.91.441 1.415.432A2.466 2.466 0 0 0 83.882 78zm10.1 1.928h5.945v5.59h.83v3.085h-1.672l-.14-1.285h-5.103l-.128 1.285h-1.633V85.52h.893l1.008-5.591zm1.595 1.696l-.625 3.856h3.036v-3.856h-2.411zm13.539-.614c.403.351.725.779.946 1.255.22.477.334.992.334 1.512a3.61 3.61 0 0 1-.334 1.513 3.768 3.768 0 0 1-.946 1.254 4.779 4.779 0 0 1-3.057 1.095 4.775 4.775 0 0 1-3.057-1.095 3.757 3.757 0 0 1-.947-1.254 3.605 3.605 0 0 1-.334-1.513c0-.52.114-1.035.334-1.512.221-.476.543-.904.947-1.255a4.818 4.818 0 0 1 3.057-1.082c1.122 0 2.206.384 3.057 1.082zm-4.697 1.184a2.097 2.097 0 0 0-.5.727 2.015 2.015 0 0 0-.148.856c0 .286.059.569.173.833.115.264.283.503.495.705.212.202.463.362.74.472a2.378 2.378 0 0 0 1.746 0 2.3 2.3 0 0 0 .74-.472c.211-.202.379-.441.494-.705.115-.264.174-.547.174-.833a2.001 2.001 0 0 0-.149-.856 2.08 2.08 0 0 0-.499-.727 2.483 2.483 0 0 0-1.633-.606 2.48 2.48 0 0 0-1.633.606zm6.941-2.266h2.494l2.275 5.145 2.48-5.145H121v7.711h-1.954v-4.848l-2.133 4.848h-1.568l-2.057-4.848v4.848h-1.928v-7.711z" fill="#B1B2B3"></path>
  </symbol>
  <symbol viewBox="0 0 43 45" fill="none" xmlns="http://www.w3.org/2000/svg" id="logo-m">
    <path fill-rule="evenodd" clip-rule="evenodd" d="M27.067 3.317c.542 4.677 1.095 9.293 1.659 13.849.53 4.478 1.061 8.923 1.575 13.268h.597c.52-4.423 1.018-8.751 1.493-12.986.476-4.235.95-8.392 1.426-12.472l4.81 1.127 4.23.996v30.7l-4.462 1.044V15.209h-.465c-.43 3.947-.862 7.944-1.293 11.991-.431 4.08-.88 8.293-1.327 12.422l-4.694 1.095-5.373 1.26c-.58-4.56-1.194-9.204-1.791-13.915-.598-4.71-1.244-9.62-1.875-14.545h-.73v29.456l-8.176 1.907V0l7.795 1.824 6.634 1.56" fill="#EBAF00"></path>
    <path fill-rule="evenodd" clip-rule="evenodd" d="M12.655 0L0 7.082v30.716l12.655 7.082V0z" fill="#3C3C3B"></path>
    <path opacity=".23" fill-rule="evenodd" clip-rule="evenodd" d="M0 37.798l4.296-2.637-.365 4.826L0 37.798z" fill="#575756"></path>
    <path opacity=".23" fill-rule="evenodd" clip-rule="evenodd" d="M0 33.752l4.296 1.41L0 37.797V33.75z" fill="#1D1D1B"></path>
    <path opacity=".23" fill-rule="evenodd" clip-rule="evenodd" d="M12.654 44.88v-6.982l-4.876 1.31 4.876 5.672z" fill="#575756"></path>
    <path opacity=".23" fill-rule="evenodd" clip-rule="evenodd" d="M4.296 35.16l5.904-6.517-2.422 10.565-3.482-4.047z" fill="#878787"></path>
    <path opacity=".23" fill-rule="evenodd" clip-rule="evenodd" d="M12.654 37.898l-3.665-3.98-1.21 5.29 4.875-1.31zM7.53 31.58l-5.092-1.494 1.857 5.076 3.235-3.583z" fill="#1D1D1B"></path>
    <path opacity=".23" fill-rule="evenodd" clip-rule="evenodd" d="M1.244 26.818l3.217-4.793-2.023 8.06-1.194-3.267z" fill="#575756"></path>
    <path opacity=".23" fill-rule="evenodd" clip-rule="evenodd" d="M12.654 18.94L8.79 26.784l3.864-1.36V18.94z" fill="#1D1D1B"></path>
    <path opacity=".23" fill-rule="evenodd" clip-rule="evenodd" d="M0 18.99l2.256 1.974L0 21.628V18.99z" fill="#575756"></path>
    <path opacity=".23" fill-rule="evenodd" clip-rule="evenodd" d="M3.93 24.148l3.6 7.43-5.092-1.492 1.493-5.938z" fill="#6F6F6E"></path>
    <path opacity=".23" fill-rule="evenodd" clip-rule="evenodd" d="M12.654 44.88l-8.359-9.719-.365 4.826 8.724 4.893z" fill="#1D1D1B"></path>
    <path opacity=".23" fill-rule="evenodd" clip-rule="evenodd" d="M12.655 30.85l1.774-3.583-1.774-1.841v5.423z" fill="#F9CD4A"></path>
    <path opacity=".69" fill-rule="evenodd" clip-rule="evenodd" d="M20.831 42.973l-8.176-5.075v6.982l8.176-1.907z" fill="#A85B04"></path>
    <path opacity=".69" fill-rule="evenodd" clip-rule="evenodd" d="M20.831 36.09l-4.096 4.345 4.096 2.537V36.09z" fill="#B57000"></path>
    <path opacity=".69" fill-rule="evenodd" clip-rule="evenodd" d="M12.655 30.85l4.08 9.585-4.08-2.537v-7.049z" fill="#BB7D00"></path>
    <path opacity=".69" fill-rule="evenodd" clip-rule="evenodd" d="M20.831 36.09l-5.938-.017 1.841 4.362 4.097-4.346z" fill="#D5A000"></path>
    <path opacity=".69" fill-rule="evenodd" clip-rule="evenodd" d="M20.831 29.787l-2.969 6.286 2.97.017v-6.303z" fill="#EFAD0D"></path>
    <path opacity=".69" fill-rule="evenodd" clip-rule="evenodd" d="M14.893 36.073l1.775-5.357 1.194 5.357h-2.968z" fill="#F3B527"></path>
    <path opacity=".69" fill-rule="evenodd" clip-rule="evenodd" d="M16.668 30.716l4.163-.929-2.969 6.286-1.194-5.357z" fill="#E19E00"></path>
    <path opacity=".69" fill-rule="evenodd" clip-rule="evenodd" d="M20.831 25.294l-4.163 5.423 4.163-.929v-4.494z" fill="#F3B71B"></path>
    <path opacity=".69" fill-rule="evenodd" clip-rule="evenodd" d="M17.249 23.087l-1.277 3.433 3.615-1.708-2.338-1.725zm3.582-4.064l-.979 2.389.98 1.227v-3.616z" fill="#F9CD4A"></path>
  </symbol>
  <symbol viewBox="0 0 17 17"   xmlns="http://www.w3.org/2000/svg" id="zoom">
    <path d="M2.138 2.138A7.251 7.251 0 0 1 7.298 0c1.95 0 3.783.76 5.162 2.138a7.251 7.251 0 0 1 2.138 5.16 7.245 7.245 0 0 1-1.798 4.797l4.054 4.054a.499.499 0 1 1-.705.705L12.095 12.8A7.245 7.245 0 0 1 7.3 14.598c-1.95 0-3.783-.76-5.161-2.138A7.25 7.25 0 0 1 0 7.299c0-1.95.76-3.783 2.138-5.161zm.705 9.617a6.309 6.309 0 0 0 8.912 0 6.309 6.309 0 0 0 0-8.912A6.282 6.282 0 0 0 7.299 1a6.283 6.283 0 0 0-4.456 1.843 6.309 6.309 0 0 0 0 8.912z"></path>
  </symbol>
  <symbol viewBox="0 0 32 32" fill="none" xmlns="http://www.w3.org/2000/svg" id="icon-questions">
    <path d="M32 21.656c0-3.97-2.278-7.515-5.69-9.238-.106 7.613-6.279 13.786-13.892 13.892A10.37 10.37 0 0 0 21.655 32c1.862 0 3.673-.496 5.263-1.438l5.036 1.393-1.393-5.036A10.306 10.306 0 0 0 32 21.656z" fill="#3C3C3B"></path>
    <path d="M24.438 12.219C24.438 5.48 18.956 0 12.217 0 5.482 0 0 5.481 0 12.219c0 2.196.584 4.333 1.694 6.21l-1.65 5.963 5.964-1.649a12.181 12.181 0 0 0 6.21 1.695c6.738 0 12.22-5.482 12.22-12.22zM10.344 9.375H8.469a3.754 3.754 0 0 1 3.75-3.75 3.754 3.754 0 0 1 3.75 3.75 3.76 3.76 0 0 1-1.22 2.767L13.156 13.6v1.463h-1.875v-2.288l2.202-2.016A1.877 1.877 0 0 0 12.218 7.5a1.877 1.877 0 0 0-1.874 1.875zm.937 7.563h1.875v1.875h-1.875v-1.875z" fill="#3C3C3B"></path>
  </symbol>
</svg>